<svg width="210" height="176" viewBox="0 0 210 176" fill="none" xmlns="http://www.w3.org/2000/svg">
<path d="M113.468 106.796C152.901 86.3656 139.134 60.2227 116.786 48.0671C94.8934 36.1597 77.8551 56.673 72.4926 67.687C60.0916 93.1531 101.844 118.955 120.952 102.464" stroke="#333" stroke-width="5" stroke-linecap="round" stroke-linejoin="round"/>
<path d="M178.953 166.396L157.552 135.842L135.247 103.999" stroke="#333" stroke-width="5" stroke-linecap="round"/>
<path d="M27.0449 163.782L51.5241 135.633L77.0367 106.295" stroke="#333" stroke-width="5" stroke-linecap="round"/>
<path d="M5 170.186H102.933H205" stroke="#333" stroke-width="10" stroke-linecap="round"/>
<path d="M104.016 21.7629C105.138 21.7629 106.048 20.8536 106.048 19.7319L106.048 14.3161C106.048 13.1945 105.138 12.2852 104.016 12.2852C102.894 12.2852 101.984 13.1945 101.984 14.3161L101.984 19.7319C101.984 20.8536 102.894 21.7629 104.016 21.7629Z" fill="#333"/>
<path d="M90.0544 24.1619C90.2829 24.1007 90.5045 23.9983 90.7082 23.853C91.6216 23.2016 91.8338 21.9331 91.182 21.0201L88.0352 16.6114C87.3833 15.6982 86.1143 15.4865 85.2013 16.1377C84.2879 16.7891 84.0757 18.0576 84.7275 18.9706L87.8743 23.3793C88.3806 24.0888 89.2592 24.3749 90.0544 24.1619Z" fill="#333"/>
<path d="M123.468 17.9263C122.555 17.2753 121.286 17.4869 120.634 18.4001L117.487 22.8088C116.836 23.7218 117.048 24.9901 117.961 25.6417C118.165 25.787 118.386 25.8893 118.615 25.9506C119.41 26.1635 120.289 25.8772 120.795 25.1679L123.942 20.7593C124.594 19.8462 124.382 18.5778 123.468 17.9263Z" fill="#333"/>
<path d="M146.308 42.6396C146.308 41.9676 146.532 41.3916 146.98 40.9116C147.46 40.4316 148.036 40.1916 148.708 40.1916C150.084 40.1596 151.316 39.9036 152.404 39.4236C153.492 38.9436 154.356 38.2236 154.996 37.2636C155.636 36.3036 155.956 35.1036 155.956 33.6636C155.956 32.4156 155.668 31.3436 155.092 30.4476C154.548 29.5196 153.796 28.7996 152.836 28.2876C151.876 27.7436 150.788 27.4716 149.572 27.4716C148.516 27.4716 147.54 27.6796 146.644 28.0956C145.748 28.5116 144.948 29.0556 144.244 29.7276C143.828 30.1116 143.316 30.3996 142.708 30.5916C142.132 30.7516 141.54 30.6076 140.932 30.1596C140.292 29.7116 139.94 29.1516 139.876 28.4796C139.812 27.8076 140.052 27.1836 140.596 26.6076C141.684 25.3916 143.012 24.4316 144.58 23.7276C146.148 23.0236 147.812 22.6716 149.572 22.6716C151.652 22.6716 153.54 23.1516 155.236 24.1116C156.932 25.0716 158.276 26.3676 159.268 27.9996C160.26 29.6316 160.756 31.5196 160.756 33.6636C160.756 35.1356 160.516 36.4796 160.036 37.6956C159.556 38.9116 158.868 39.9676 157.972 40.8636C157.076 41.7596 156.036 42.4796 154.852 43.0236C153.7 43.5676 152.436 43.9196 151.06 44.0796C150.996 44.1116 150.964 44.1276 150.964 44.1276C150.996 44.1276 151.044 44.1276 151.108 44.1276V47.0076C151.108 47.6796 150.868 48.2556 150.388 48.7356C149.94 49.1836 149.38 49.4076 148.708 49.4076C148.004 49.4076 147.428 49.1836 146.98 48.7356C146.532 48.2556 146.308 47.6796 146.308 47.0076V42.6396ZM148.564 58.1436C147.764 58.1436 147.14 57.9196 146.692 57.4716C146.276 57.0236 146.068 56.3996 146.068 55.5996V54.7356C146.068 53.9036 146.276 53.2796 146.692 52.8636C147.14 52.4156 147.764 52.1916 148.564 52.1916H149.044C149.876 52.1916 150.5 52.4156 150.916 52.8636C151.332 53.2796 151.54 53.9036 151.54 54.7356V55.5996C151.54 56.3996 151.332 57.0236 150.916 57.4716C150.5 57.9196 149.876 58.1436 149.044 58.1436H148.564Z" fill="#333"/>
<g clip-path="url(#clip0_85_1321)">
<path d="M165.1 157.084V79.3232H44.1001V157.084H81.9126V167.593H71.8293V171.796H137.371V167.593H127.288V157.084H165.1ZM49.1418 83.5265H160.058V140.271H49.1418V83.5265ZM122.246 167.593H86.9543V157.084H122.246V167.593ZM49.1418 152.881V144.474H160.058V152.881H49.1418Z" fill="#333"/>
<rect x="49.1001" y="83.1172" width="111" height="67.4748" fill="#FFE5E5"/>
</g>
<defs>
<clipPath id="clip0_85_1321">
<rect width="121" height="100.879" fill="white" transform="translate(44.1001 75.1201)"/>
</clipPath>
</defs>
</svg>
