<svg width="84" height="36" viewBox="0 0 84 36" fill="none" xmlns="http://www.w3.org/2000/svg">
<path d="M5.26132 26.342C4.99907 26.342 4.78366 26.2623 4.61507 26.1031C4.44649 25.9345 4.3622 25.7285 4.3622 25.485V17.3367H6.18854V25.485C6.18854 25.7285 6.09956 25.9345 5.92161 26.1031C5.75303 26.2623 5.53292 26.342 5.26132 26.342ZM2.15654 18.1234C1.91303 18.1234 1.70698 18.0485 1.53839 17.8986C1.37917 17.7488 1.29956 17.5521 1.29956 17.3086C1.29956 17.0651 1.37917 16.8731 1.53839 16.7326C1.70698 16.5827 1.91303 16.5078 2.15654 16.5078H8.3942C8.63771 16.5078 8.8391 16.5827 8.99829 16.7326C9.16688 16.8825 9.25117 17.0792 9.25117 17.3226C9.25117 17.5661 9.16688 17.7628 8.99829 17.9127C8.8391 18.0532 8.63771 18.1234 8.3942 18.1234H2.15654Z" fill="white"/>
<path d="M25.4634 18.1234C25.9096 18.1234 26.2713 17.7618 26.2713 17.3156C26.2713 16.8695 25.9096 16.5078 25.4634 16.5078V18.1234ZM7.90247 18.1234H25.4634V16.5078H7.90247V18.1234Z" fill="white"/>
<path d="M4.36365 31.6112C4.36365 32.1155 4.77248 32.5244 5.27682 32.5244C5.78114 32.5244 6.18999 32.1155 6.18999 31.6112H4.36365ZM4.36365 25.4648V31.6112H6.18999V25.4648H4.36365Z" fill="white"/>
<path d="M9.81303 22.6522H14.5194C14.7629 22.6522 14.9643 22.7318 15.1235 22.891C15.2921 23.0409 15.3763 23.2376 15.3763 23.4811C15.3763 23.7153 15.2921 23.9072 15.1235 24.0571C14.9643 24.1976 14.7629 24.2678 14.5194 24.2678H10.5857L10.7122 24.029V26.7685L10.5998 26.6561H13.8872C14.1307 26.6561 14.3321 26.7357 14.4913 26.8949C14.6599 27.0448 14.7442 27.2415 14.7442 27.485C14.7442 27.7192 14.6599 27.9111 14.4913 28.061C14.3321 28.2015 14.1307 28.2717 13.8872 28.2717H10.6419L10.7122 28.1593V30.9972L10.5998 30.8707H14.5194C14.7629 30.8707 14.9643 30.955 15.1235 31.1236C15.2921 31.2828 15.3763 31.4702 15.3763 31.6856C15.3763 31.9198 15.2921 32.1117 15.1235 32.2616C14.9643 32.4115 14.7629 32.4864 14.5194 32.4864H9.81303C9.56955 32.4864 9.36347 32.4067 9.19488 32.2475C9.03569 32.0789 8.95605 31.8729 8.95605 31.6294V23.5092C8.95605 23.2657 9.03569 23.0643 9.19488 22.9051C9.36347 22.7365 9.56955 22.6522 9.81303 22.6522ZM23.8795 23.1299C24.1231 23.2517 24.2636 23.4436 24.3011 23.7059C24.3479 23.9681 24.2823 24.207 24.1044 24.4224C23.9826 24.5909 23.8234 24.6846 23.6268 24.7033C23.4394 24.722 23.2474 24.6846 23.0508 24.5909C22.826 24.4879 22.5871 24.4083 22.3343 24.3521C22.0907 24.2959 21.8332 24.2678 21.5616 24.2678C21.0558 24.2678 20.6015 24.3475 20.1989 24.5066C19.8055 24.6658 19.4683 24.8954 19.1873 25.195C18.9064 25.4854 18.6909 25.8319 18.5411 26.2346C18.4006 26.6374 18.3304 27.0822 18.3304 27.5693C18.3304 28.1406 18.4099 28.637 18.5692 29.0585C18.7378 29.4799 18.9672 29.8311 19.2576 30.1121C19.5479 30.3931 19.8898 30.6038 20.2831 30.7443C20.6765 30.8754 21.1026 30.941 21.5616 30.941C21.8145 30.941 22.0673 30.9175 22.3202 30.8707C22.5731 30.8239 22.8166 30.7397 23.0508 30.6179C23.2474 30.5242 23.4394 30.4914 23.6268 30.5195C23.8234 30.5476 23.9873 30.646 24.1185 30.8146C24.3058 31.0487 24.3713 31.2922 24.3151 31.5451C24.2683 31.7886 24.1278 31.9665 23.8937 32.0789C23.6501 32.2007 23.3972 32.3037 23.135 32.388C22.8822 32.4629 22.6246 32.5191 22.3624 32.5566C22.1001 32.6034 21.8332 32.6268 21.5616 32.6268C20.8872 32.6268 20.2457 32.5191 19.6369 32.3037C19.0375 32.0883 18.499 31.7699 18.0213 31.3484C17.5529 30.9269 17.183 30.4025 16.9114 29.7749C16.6398 29.1381 16.504 28.4028 16.504 27.5693C16.504 26.8481 16.6257 26.1831 16.8692 25.5744C17.1222 24.9656 17.4734 24.4411 17.923 24.0009C18.3818 23.5513 18.9204 23.2048 19.5386 22.9613C20.1567 22.7084 20.831 22.582 21.5616 22.582C21.9737 22.582 22.3764 22.6288 22.7698 22.7225C23.1631 22.8161 23.5331 22.9519 23.8795 23.1299ZM26.7027 22.6522C26.9275 22.6522 27.1242 22.7365 27.2928 22.9051C27.4708 23.0643 27.5597 23.2657 27.5597 23.5092V31.6294C27.5597 31.8729 27.4708 32.0789 27.2928 32.2475C27.1148 32.4067 26.9088 32.4864 26.6746 32.4864C26.4124 32.4864 26.2016 32.4067 26.0424 32.2475C25.8833 32.0789 25.8036 31.8729 25.8036 31.6294V23.5092C25.8036 23.2657 25.8879 23.0643 26.0565 22.9051C26.2251 22.7365 26.4405 22.6522 26.7027 22.6522ZM32.9263 22.6522C33.1886 22.6522 33.3994 22.7365 33.5585 22.9051C33.7177 23.0643 33.7974 23.2657 33.7974 23.5092V31.6294C33.7974 31.8729 33.7131 32.0789 33.5445 32.2475C33.3853 32.4067 33.1698 32.4864 32.8982 32.4864C32.6735 32.4864 32.4721 32.4067 32.2942 32.2475C32.1256 32.0789 32.0413 31.8729 32.0413 31.6294V23.5092C32.0413 23.2657 32.1302 23.0643 32.3082 22.9051C32.4862 22.7365 32.6922 22.6522 32.9263 22.6522ZM26.6606 26.7404H32.9263V28.356H26.6606V26.7404ZM39.0622 32.6268C38.4065 32.6268 37.8165 32.5472 37.292 32.388C36.7675 32.2194 36.2664 31.9291 35.7888 31.517C35.667 31.414 35.5734 31.2969 35.5078 31.1658C35.4422 31.0347 35.4095 30.9035 35.4095 30.7724C35.4095 30.557 35.4844 30.3696 35.6342 30.2105C35.7934 30.0419 35.9901 29.9576 36.2243 29.9576C36.4023 29.9576 36.5615 30.0138 36.702 30.1262C37.0578 30.4165 37.409 30.6366 37.7556 30.7865C38.1115 30.9363 38.547 31.0112 39.0622 31.0112C39.4087 31.0112 39.7271 30.9597 40.0175 30.8567C40.3078 30.7443 40.5419 30.5992 40.7199 30.4212C40.8979 30.2339 40.9868 30.0232 40.9868 29.789C40.9868 29.508 40.9025 29.2692 40.734 29.0725C40.5654 28.8758 40.3078 28.7119 39.9613 28.5808C39.6147 28.4403 39.1745 28.3326 38.6407 28.2577C38.1349 28.1828 37.69 28.0704 37.3061 27.9205C36.9221 27.7613 36.599 27.5646 36.3367 27.3305C36.0838 27.087 35.8918 26.806 35.7607 26.4875C35.6296 26.1597 35.564 25.7945 35.564 25.3917C35.564 24.783 35.7185 24.2632 36.0276 23.8323C36.3461 23.4014 36.7722 23.0737 37.3061 22.8489C37.8399 22.6241 38.43 22.5117 39.0762 22.5117C39.685 22.5117 40.2469 22.6054 40.7621 22.7927C41.2865 22.9707 41.7127 23.2001 42.0405 23.4811C42.3121 23.6965 42.4479 23.9447 42.4479 24.2257C42.4479 24.4317 42.3683 24.619 42.2091 24.7876C42.0499 24.9562 41.8625 25.0405 41.6471 25.0405C41.5066 25.0405 41.3802 24.9984 41.2678 24.9141C41.1179 24.783 40.9166 24.6612 40.6637 24.5488C40.4108 24.427 40.1439 24.3287 39.8629 24.2538C39.582 24.1695 39.3197 24.1273 39.0762 24.1273C38.6734 24.1273 38.3316 24.1789 38.0506 24.2819C37.7791 24.3849 37.573 24.5253 37.4325 24.7033C37.292 24.8813 37.2218 25.0873 37.2218 25.3215C37.2218 25.6025 37.3014 25.8366 37.4606 26.0239C37.6292 26.2019 37.868 26.347 38.1771 26.4594C38.4862 26.5624 38.8561 26.6561 39.2869 26.7404C39.8489 26.8434 40.3406 26.9652 40.7621 27.1057C41.1929 27.2462 41.5488 27.4288 41.8298 27.6536C42.1107 27.869 42.3215 28.1453 42.462 28.4825C42.6024 28.8102 42.6727 29.213 42.6727 29.6906C42.6727 30.2994 42.5041 30.8239 42.1669 31.2641C41.8298 31.7043 41.3849 32.0414 40.8323 32.2756C40.2891 32.5098 39.699 32.6268 39.0622 32.6268Z" fill="white"/>
<path d="M54.6146 31.6294C54.6146 31.8729 54.5257 32.0789 54.3477 32.2475C54.1697 32.4067 53.9637 32.4864 53.7295 32.4864C53.4673 32.4864 53.2565 32.4067 53.0973 32.2475C52.9382 32.0789 52.8585 31.8729 52.8585 31.6294V23.5092C52.8585 23.2657 52.9428 23.0643 53.1114 22.9051C53.28 22.7365 53.4954 22.6522 53.7576 22.6522C53.9824 22.6522 54.1791 22.7365 54.3477 22.9051C54.5257 23.0643 54.6146 23.2657 54.6146 23.5092V31.6294ZM63.6113 23.1299C63.8549 23.2517 63.9953 23.4436 64.0328 23.7059C64.0796 23.9681 64.014 24.207 63.8362 24.4224C63.7144 24.5909 63.5552 24.6846 63.3585 24.7033C63.1711 24.722 62.9792 24.6846 62.7825 24.5909C62.5577 24.4879 62.3189 24.4083 62.066 24.3521C61.8224 24.2959 61.5649 24.2678 61.2933 24.2678C60.7876 24.2678 60.3333 24.3475 59.9306 24.5066C59.5372 24.6658 59.2001 24.8954 58.9191 25.195C58.6381 25.4854 58.4226 25.8319 58.2728 26.2346C58.1323 26.6374 58.0621 27.0822 58.0621 27.5693C58.0621 28.1406 58.1417 28.637 58.3009 29.0585C58.4695 29.4799 58.6989 29.8311 58.9893 30.1121C59.2796 30.3931 59.6215 30.6038 60.0149 30.7443C60.4083 30.8754 60.8344 30.941 61.2933 30.941C61.5462 30.941 61.7991 30.9175 62.052 30.8707C62.3048 30.8239 62.5483 30.7397 62.7825 30.6179C62.9792 30.5242 63.1711 30.4914 63.3585 30.5195C63.5552 30.5476 63.719 30.646 63.8502 30.8146C64.0375 31.0487 64.1031 31.2922 64.0469 31.5451C64 31.7886 63.8595 31.9665 63.6254 32.0789C63.3819 32.2007 63.129 32.3037 62.8668 32.388C62.6139 32.4629 62.3563 32.5191 62.0941 32.5566C61.8318 32.6034 61.5649 32.6268 61.2933 32.6268C60.619 32.6268 59.9774 32.5191 59.3686 32.3037C58.7692 32.0883 58.2307 31.7699 57.753 31.3484C57.2847 30.9269 56.9148 30.4025 56.6432 29.7749C56.3715 29.1381 56.2358 28.4028 56.2358 27.5693C56.2358 26.8481 56.3575 26.1831 56.6009 25.5744C56.8539 24.9656 57.2051 24.4411 57.6547 24.0009C58.1136 23.5513 58.6521 23.2048 59.2703 22.9613C59.8884 22.7084 60.5628 22.582 61.2933 22.582C61.7054 22.582 62.1081 22.6288 62.5015 22.7225C62.8949 22.8161 63.2648 22.9519 63.6113 23.1299ZM72.3069 32.4864C72.0446 32.4864 71.8339 32.3786 71.6747 32.1632L68.4294 27.8924L69.7078 26.5859L73.0655 31.0253C73.1966 31.2033 73.2622 31.3952 73.2622 31.6013C73.2622 31.8636 73.1638 32.0789 72.9672 32.2475C72.7705 32.4067 72.5504 32.4864 72.3069 32.4864ZM72.4754 22.582C72.7002 22.582 72.8829 22.6757 73.0233 22.8629C73.1732 23.0409 73.2481 23.2236 73.2481 23.4108C73.2481 23.6075 73.1638 23.7902 72.9953 23.9587L67.1088 29.5923L67.0386 27.5833L71.7871 22.9051C72.0024 22.6897 72.232 22.582 72.4754 22.582ZM66.4064 32.4864C66.1441 32.4864 65.9334 32.4067 65.7742 32.2475C65.615 32.0789 65.5353 31.8729 65.5353 31.6294V23.5092C65.5353 23.2657 65.6196 23.0643 65.7882 22.9051C65.9568 22.7365 66.1722 22.6522 66.4345 22.6522C66.6967 22.6522 66.9027 22.7365 67.0526 22.9051C67.2118 23.0643 67.2914 23.2657 67.2914 23.5092V31.6294C67.2914 31.8729 67.2118 32.0789 67.0526 32.2475C66.8934 32.4067 66.678 32.4864 66.4064 32.4864ZM77.7649 32.6268C77.1094 32.6268 76.5193 32.5472 75.9948 32.388C75.4703 32.2194 74.9692 31.9291 74.4915 31.517C74.3698 31.414 74.2762 31.2969 74.2106 31.1658C74.1451 31.0347 74.1122 30.9035 74.1122 30.7724C74.1122 30.557 74.1872 30.3696 74.337 30.2105C74.4963 30.0419 74.693 29.9576 74.9271 29.9576C75.105 29.9576 75.2642 30.0138 75.4047 30.1262C75.7607 30.4165 76.1119 30.6366 76.4584 30.7865C76.8143 30.9363 77.2498 31.0112 77.7649 31.0112C78.1115 31.0112 78.4299 30.9597 78.7202 30.8567C79.0106 30.7443 79.2448 30.5992 79.4227 30.4212C79.6006 30.2339 79.6896 30.0232 79.6896 29.789C79.6896 29.508 79.6053 29.2692 79.4367 29.0725C79.2681 28.8758 79.0106 28.7119 78.664 28.5808C78.3175 28.4403 77.8773 28.3326 77.3434 28.2577C76.8377 28.1828 76.3929 28.0704 76.0088 27.9205C75.6248 27.7613 75.3017 27.5646 75.0394 27.3305C74.7866 27.087 74.5946 26.806 74.4634 26.4875C74.3324 26.1597 74.2668 25.7945 74.2668 25.3917C74.2668 24.783 74.4213 24.2632 74.7304 23.8323C75.0488 23.4014 75.475 23.0737 76.0088 22.8489C76.5427 22.6241 77.1327 22.5117 77.779 22.5117C78.3878 22.5117 78.9497 22.6054 79.4648 22.7927C79.9894 22.9707 80.4155 23.2001 80.7432 23.4811C81.0149 23.6965 81.1507 23.9447 81.1507 24.2257C81.1507 24.4317 81.0711 24.619 80.9118 24.7876C80.7526 24.9562 80.5654 25.0405 80.3499 25.0405C80.2094 25.0405 80.083 24.9984 79.9706 24.9141C79.8208 24.783 79.6193 24.6612 79.3665 24.5488C79.1136 24.427 78.8467 24.3287 78.5657 24.2538C78.2847 24.1695 78.0225 24.1273 77.779 24.1273C77.3763 24.1273 77.0344 24.1789 76.7534 24.2819C76.4818 24.3849 76.2757 24.5253 76.1352 24.7033C75.9948 24.8813 75.9245 25.0873 75.9245 25.3215C75.9245 25.6025 76.0042 25.8366 76.1633 26.0239C76.3319 26.2019 76.5708 26.347 76.8798 26.4594C77.1889 26.5624 77.5589 26.6561 77.9897 26.7404C78.5516 26.8434 79.0433 26.9652 79.4648 27.1057C79.8957 27.2462 80.2515 27.4288 80.5325 27.6536C80.8135 27.869 81.0242 28.1453 81.1647 28.4825C81.3052 28.8102 81.3754 29.213 81.3754 29.6906C81.3754 30.2994 81.2069 30.8239 80.8697 31.2641C80.5325 31.7043 80.0877 32.0414 79.535 32.2756C78.9919 32.5098 78.4018 32.6268 77.7649 32.6268Z" fill="white"/>
<path d="M47.4076 28.9748C47.1453 28.9748 46.9299 28.8951 46.7613 28.7359C46.5927 28.5674 46.5084 28.3613 46.5084 28.1178V19.9695H48.3348V28.1178C48.3348 28.3613 48.2458 28.5674 48.0679 28.7359C47.8993 28.8951 47.6791 28.9748 47.4076 28.9748ZM44.3028 20.7562C44.0593 20.7562 43.8532 20.6813 43.6846 20.5315C43.5254 20.3816 43.4458 20.1849 43.4458 19.9414C43.4458 19.6979 43.5254 19.5059 43.6846 19.3654C43.8532 19.2155 44.0593 19.1406 44.3028 19.1406H50.5404C50.7839 19.1406 50.9853 19.2155 51.1445 19.3654C51.3131 19.5153 51.3974 19.712 51.3974 19.9555C51.3974 20.1989 51.3131 20.3956 51.1445 20.5455C50.9853 20.686 50.7839 20.7562 50.5404 20.7562H44.3028Z" fill="white"/>
<path d="M28.5366 19.1406C28.0904 19.1406 27.7288 19.5023 27.7288 19.9484C27.7288 20.3946 28.0904 20.7562 28.5366 20.7562V19.1406ZM46.0975 19.1406H28.5366V20.7562H46.0975V19.1406Z" fill="white"/>
<path d="M46.5015 31.6112C46.5015 32.1155 46.9103 32.5244 47.4146 32.5244C47.919 32.5244 48.3278 32.1155 48.3278 31.6112H46.5015ZM46.5015 25.4648V31.6112H48.3278V25.4648H46.5015Z" fill="white"/>
<path d="M28.2788 7.54647C28.3914 8.32951 28.5349 9.07724 28.7052 9.7687C28.7575 9.98075 30.1955 12.2011 30.382 12.2011C30.4196 12.2011 30.783 12.2129 30.8211 12.2011C31.0475 12.1305 29.5669 9.47385 29.5042 9.21913C29.3622 8.64273 29.5042 8.10229 29.5042 7.46301C29.5042 6.82373 32.0777 5.93998 34.2481 5.16646L35.5494 5.46484C35.7715 5.55017 36.0135 5.41673 36.0895 5.16646C36.1654 4.91627 36.0467 4.64421 35.8243 4.55881L34.5121 4.05496C34.4268 4.02218 34.3343 4.02076 34.2481 4.05095C32.3489 4.7166 29.6843 5.91546 28.4255 7.1033C28.3105 7.21159 28.2549 7.38001 28.2788 7.54647Z" fill="white"/>
<path d="M26.9962 8.62476C27.0739 8.66219 27.1584 8.68004 27.2418 8.68004C27.4146 8.68004 27.5826 8.60355 27.6742 8.46715C27.8101 8.26497 28.0682 8.01717 27.8296 7.90204C26.6045 7.31088 24.3055 5.40844 22.5613 3.51179V2.63374C22.5541 2.40115 22.269 2.09729 21.9964 2.10361C21.7219 2.1097 21.5052 2.3032 21.5124 2.53575L21.5548 3.90777C21.5576 3.99708 21.5938 4.08335 21.6582 4.15408C23.0779 5.71324 25.3279 7.81962 26.9962 8.62476Z" fill="white"/>
<path d="M30.2928 12.2929H28.0977H25.4636L25.4355 16.623C25.4364 16.874 25.1908 17.0706 24.8926 17.0607C24.5927 17.0527 24.3492 16.8411 24.3513 16.5907L24.3598 11.3072C24.359 11.1768 24.4257 11.053 24.5446 10.9709C24.667 10.8883 24.8202 10.8536 24.975 10.8756L29.4324 11.5144L30.2928 12.2929Z" fill="white"/>
<path d="M29.5352 12.148L24.9084 11.7038L25.8184 11.1116C25.9066 11.0459 26.1754 11.0759 26.2565 11.0857L30.235 11.4726L30.2351 11.8312C30.2314 11.8409 30.7028 11.976 30.6434 12.0426C30.6351 12.0517 30.6322 12.0645 30.6238 12.0722L30.0223 12.1826L29.5352 12.148Z" fill="white"/>
<path d="M30.8192 12.1781L28.185 14.8123L31.7421 18.0009C31.9368 18.1591 31.9333 18.4737 31.7366 18.6982C31.5405 18.9251 31.2224 18.9794 31.03 18.8191L26.9482 15.4645C26.8467 15.3825 26.7932 15.2523 26.8051 15.1083C26.8188 14.9614 26.889 14.8209 27.0041 14.7151L29.7922 11.7715L30.8192 12.1781Z" fill="white"/>
<path d="M29.1089 4.75722C26.9789 6.19349 25.4449 5.29349 25.4357 3.83749C25.4267 2.41119 26.6434 1.68423 27.355 1.71169C29.0006 1.77508 30.1638 4.38168 28.7939 4.89936" stroke="white" stroke-width="1.25" stroke-linecap="round" stroke-linejoin="round"/>
</svg>
