<svg width="288" height="135" viewBox="0 0 288 135" fill="none" xmlns="http://www.w3.org/2000/svg">
<rect width="287.5" height="135" fill="white"/>
<path d="M34.3718 102.55C33.6358 102.55 33.0378 102.335 32.5778 101.906C32.1485 101.446 31.9338 100.879 31.9338 100.204V72.65H36.8558V100.204C36.8558 100.879 36.6105 101.446 36.1198 101.906C35.6598 102.335 35.0772 102.55 34.3718 102.55ZM23.9298 74.766C23.2858 74.766 22.7338 74.5667 22.2738 74.168C21.8138 73.7387 21.5838 73.1867 21.5838 72.512C21.5838 71.868 21.8138 71.3467 22.2738 70.948C22.7338 70.5493 23.2858 70.35 23.9298 70.35H44.8598C45.5038 70.35 46.0405 70.5647 46.4698 70.994C46.9298 71.3927 47.1598 71.914 47.1598 72.558C47.1598 73.2327 46.9298 73.7693 46.4698 74.168C46.0405 74.5667 45.5038 74.766 44.8598 74.766H23.9298Z" fill="black"/>
<path d="M98.1579 74.8C99.3729 74.8 100.358 73.815 100.358 72.6C100.358 71.385 99.3729 70.4 98.1579 70.4V74.8ZM35 74.8H98.1579V70.4H35V74.8Z" fill="black"/>
<path d="M31.95 120.105C31.95 121.458 33.0469 122.555 34.4 122.555C35.7531 122.555 36.85 121.458 36.85 120.105H31.95ZM31.95 98V120.105H36.85V98H31.95Z" fill="black"/>
<path d="M44.493 90.1158H60.409C61.053 90.1158 61.5897 90.3305 62.019 90.7598C62.479 91.1891 62.709 91.7258 62.709 92.3698C62.709 93.0138 62.479 93.5351 62.019 93.9338C61.5897 94.3325 61.053 94.5318 60.409 94.5318H46.517L46.977 93.7498V104.054L46.563 103.594H58.339C58.983 103.594 59.5197 103.808 59.949 104.238C60.409 104.667 60.639 105.219 60.639 105.894C60.639 106.538 60.409 107.059 59.949 107.458C59.5197 107.856 58.983 108.056 58.339 108.056H46.655L46.977 107.642V118.268L46.655 117.9H60.409C61.053 117.9 61.5897 118.13 62.019 118.59C62.479 119.019 62.709 119.525 62.709 120.108C62.709 120.752 62.479 121.288 62.019 121.718C61.5897 122.116 61.053 122.316 60.409 122.316H44.493C43.849 122.316 43.297 122.101 42.837 121.672C42.377 121.212 42.147 120.644 42.147 119.97V92.4618C42.147 91.7871 42.377 91.2351 42.837 90.8058C43.297 90.3458 43.849 90.1158 44.493 90.1158ZM91.2883 91.9558C91.963 92.2931 92.3463 92.8145 92.4383 93.5198C92.561 94.2251 92.3923 94.8691 91.9323 95.4518C91.595 95.9118 91.1503 96.1725 90.5983 96.2338C90.077 96.2951 89.5557 96.1878 89.0343 95.9118C88.145 95.4518 87.2097 95.0838 86.2283 94.8078C85.247 94.5318 84.2043 94.3938 83.1003 94.3938C81.3523 94.3938 79.773 94.6851 78.3623 95.2678C76.9823 95.8198 75.7863 96.6325 74.7743 97.7058C73.7623 98.7485 72.9803 99.9905 72.4283 101.432C71.907 102.873 71.6463 104.468 71.6463 106.216C71.6463 108.148 71.9377 109.865 72.5203 111.368C73.103 112.84 73.9003 114.097 74.9123 115.14C75.955 116.152 77.1663 116.918 78.5463 117.44C79.957 117.93 81.475 118.176 83.1003 118.176C84.143 118.176 85.155 118.053 86.1363 117.808C87.1483 117.562 88.099 117.194 88.9883 116.704C89.5403 116.428 90.077 116.336 90.5983 116.428C91.1503 116.489 91.595 116.75 91.9323 117.21C92.4537 117.854 92.6377 118.513 92.4843 119.188C92.3617 119.832 91.9783 120.322 91.3343 120.66C90.5677 121.089 89.7243 121.457 88.8043 121.764C87.8843 122.07 86.949 122.316 85.9983 122.5C85.0477 122.684 84.0817 122.776 83.1003 122.776C80.8923 122.776 78.807 122.408 76.8443 121.672C74.8817 120.936 73.1337 119.862 71.6003 118.452C70.067 117.041 68.8557 115.308 67.9663 113.254C67.1077 111.199 66.6783 108.853 66.6783 106.216C66.6783 103.854 67.077 101.677 67.8743 99.6838C68.7023 97.6598 69.8523 95.9271 71.3243 94.4858C72.827 93.0138 74.575 91.8791 76.5683 91.0818C78.5617 90.2538 80.739 89.8398 83.1003 89.8398C84.5723 89.8398 85.9983 90.0238 87.3783 90.3918C88.789 90.7598 90.0923 91.2811 91.2883 91.9558ZM100.154 90.1158C100.768 90.1158 101.304 90.3458 101.764 90.8058C102.255 91.2351 102.5 91.7871 102.5 92.4618V119.97C102.47 120.644 102.209 121.212 101.718 121.672C101.258 122.101 100.706 122.316 100.062 122.316C99.3571 122.316 98.7745 122.101 98.3145 121.672C97.8851 121.212 97.6705 120.644 97.6705 119.97V92.4618C97.6705 91.7871 97.9005 91.2351 98.3605 90.8058C98.8205 90.3458 99.4185 90.1158 100.154 90.1158ZM120.9 90.1158C121.636 90.1158 122.219 90.3458 122.648 90.8058C123.078 91.2351 123.292 91.7871 123.292 92.4618V119.97C123.292 120.644 123.062 121.212 122.602 121.672C122.173 122.101 121.59 122.316 120.854 122.316C120.21 122.316 119.658 122.101 119.198 121.672C118.738 121.212 118.508 120.644 118.508 119.97V92.4618C118.508 91.7871 118.738 91.2351 119.198 90.8058C119.689 90.3458 120.256 90.1158 120.9 90.1158ZM99.9705 103.824H120.946L120.9 108.24H99.9245L99.9705 103.824ZM140.623 122.776C138.415 122.776 136.452 122.469 134.735 121.856C133.018 121.242 131.377 120.23 129.813 118.82C129.476 118.574 129.215 118.283 129.031 117.946C128.878 117.578 128.801 117.21 128.801 116.842C128.801 116.259 129.016 115.738 129.445 115.278C129.874 114.818 130.411 114.588 131.055 114.588C131.546 114.588 132.006 114.756 132.435 115.094C133.6 116.167 134.812 116.98 136.069 117.532C137.357 118.084 138.86 118.36 140.577 118.36C141.804 118.36 142.923 118.16 143.935 117.762C144.978 117.363 145.806 116.826 146.419 116.152C147.032 115.477 147.339 114.695 147.339 113.806C147.339 112.702 147.017 111.797 146.373 111.092C145.76 110.356 144.855 109.758 143.659 109.298C142.494 108.807 141.083 108.393 139.427 108.056C137.894 107.78 136.514 107.396 135.287 106.906C134.091 106.415 133.064 105.802 132.205 105.066C131.346 104.299 130.687 103.394 130.227 102.352C129.767 101.309 129.537 100.098 129.537 98.7178C129.537 96.8471 130.028 95.2371 131.009 93.8878C131.99 92.5385 133.324 91.4958 135.011 90.7598C136.698 90.0238 138.599 89.6558 140.715 89.6558C142.647 89.6558 144.456 89.9625 146.143 90.5758C147.83 91.1585 149.194 91.9558 150.237 92.9678C150.973 93.6118 151.341 94.3018 151.341 95.0378C151.341 95.5898 151.111 96.1111 150.651 96.6018C150.222 97.0618 149.716 97.2918 149.133 97.2918C148.704 97.2918 148.336 97.1691 148.029 96.9238C147.538 96.4025 146.879 95.9425 146.051 95.5438C145.223 95.1145 144.334 94.7618 143.383 94.4858C142.463 94.2098 141.574 94.0718 140.715 94.0718C139.335 94.0718 138.154 94.2711 137.173 94.6698C136.192 95.0378 135.44 95.5591 134.919 96.2338C134.398 96.8778 134.137 97.6445 134.137 98.5338C134.137 99.5765 134.428 100.435 135.011 101.11C135.624 101.784 136.468 102.336 137.541 102.766C138.614 103.164 139.841 103.532 141.221 103.87C142.908 104.238 144.41 104.652 145.729 105.112C147.078 105.572 148.213 106.17 149.133 106.906C150.053 107.611 150.758 108.5 151.249 109.574C151.74 110.647 151.985 111.981 151.985 113.576C151.985 115.416 151.464 117.026 150.421 118.406C149.378 119.786 147.998 120.859 146.281 121.626C144.594 122.392 142.708 122.776 140.623 122.776Z" fill="black"/>
<path d="M176.876 119.97C176.845 120.644 176.585 121.212 176.094 121.672C175.634 122.101 175.082 122.316 174.438 122.316C173.733 122.316 173.15 122.101 172.69 121.672C172.261 121.212 172.046 120.644 172.046 119.97V92.4618C172.046 91.7871 172.276 91.2351 172.736 90.8058C173.196 90.3458 173.794 90.1158 174.53 90.1158C175.143 90.1158 175.68 90.3458 176.14 90.8058C176.631 91.2351 176.876 91.7871 176.876 92.4618V119.97ZM207.172 91.9558C207.846 92.2931 208.23 92.8145 208.322 93.5198C208.444 94.2251 208.276 94.8691 207.816 95.4518C207.478 95.9118 207.034 96.1725 206.482 96.2338C205.96 96.2951 205.439 96.1878 204.918 95.9118C204.028 95.4518 203.093 95.0838 202.112 94.8078C201.13 94.5318 200.088 94.3938 198.984 94.3938C197.236 94.3938 195.656 94.6851 194.246 95.2678C192.866 95.8198 191.67 96.6325 190.658 97.7058C189.646 98.7485 188.864 99.9905 188.312 101.432C187.79 102.873 187.53 104.468 187.53 106.216C187.53 108.148 187.821 109.865 188.404 111.368C188.986 112.84 189.784 114.097 190.796 115.14C191.838 116.152 193.05 116.918 194.43 117.44C195.84 117.93 197.358 118.176 198.984 118.176C200.026 118.176 201.038 118.053 202.02 117.808C203.032 117.562 203.982 117.194 204.872 116.704C205.424 116.428 205.96 116.336 206.482 116.428C207.034 116.489 207.478 116.75 207.816 117.21C208.337 117.854 208.521 118.513 208.368 119.188C208.245 119.832 207.862 120.322 207.218 120.66C206.451 121.089 205.608 121.457 204.688 121.764C203.768 122.07 202.832 122.316 201.882 122.5C200.931 122.684 199.965 122.776 198.984 122.776C196.776 122.776 194.69 122.408 192.728 121.672C190.765 120.936 189.017 119.862 187.484 118.452C185.95 117.041 184.739 115.308 183.85 113.254C182.991 111.199 182.562 108.853 182.562 106.216C182.562 103.854 182.96 101.677 183.758 99.6838C184.586 97.6598 185.736 95.9271 187.208 94.4858C188.71 93.0138 190.458 91.8791 192.452 91.0818C194.445 90.2538 196.622 89.8398 198.984 89.8398C200.456 89.8398 201.882 90.0238 203.262 90.3918C204.672 90.7598 205.976 91.2811 207.172 91.9558ZM236.002 122.362C235.297 122.362 234.729 122.07 234.3 121.488L222.846 106.722L226.388 103.134L238.072 118.36C238.44 118.85 238.624 119.387 238.624 119.97C238.624 120.706 238.348 121.288 237.796 121.718C237.244 122.147 236.646 122.362 236.002 122.362ZM236.232 89.9778C236.845 89.9778 237.351 90.2231 237.75 90.7138C238.149 91.2045 238.348 91.7105 238.348 92.2318C238.348 92.7838 238.118 93.2898 237.658 93.7498L217.832 112.564L217.556 107.136L234.392 90.8518C234.944 90.2691 235.557 89.9778 236.232 89.9778ZM215.946 122.316C215.241 122.316 214.658 122.101 214.198 121.672C213.769 121.212 213.554 120.644 213.554 119.97V92.4618C213.554 91.7871 213.784 91.2351 214.244 90.8058C214.704 90.3458 215.302 90.1158 216.038 90.1158C216.743 90.1158 217.311 90.3458 217.74 90.8058C218.169 91.2351 218.384 91.7871 218.384 92.4618V119.97C218.353 120.644 218.123 121.212 217.694 121.672C217.265 122.101 216.682 122.316 215.946 122.316ZM253.452 122.776C251.244 122.776 249.281 122.469 247.564 121.856C245.846 121.242 244.206 120.23 242.642 118.82C242.304 118.574 242.044 118.283 241.86 117.946C241.706 117.578 241.63 117.21 241.63 116.842C241.63 116.259 241.844 115.738 242.274 115.278C242.703 114.818 243.24 114.588 243.884 114.588C244.374 114.588 244.834 114.756 245.264 115.094C246.429 116.167 247.64 116.98 248.898 117.532C250.186 118.084 251.688 118.36 253.406 118.36C254.632 118.36 255.752 118.16 256.764 117.762C257.806 117.363 258.634 116.826 259.248 116.152C259.861 115.477 260.168 114.695 260.168 113.806C260.168 112.702 259.846 111.797 259.202 111.092C258.588 110.356 257.684 109.758 256.488 109.298C255.322 108.807 253.912 108.393 252.256 108.056C250.722 107.78 249.342 107.396 248.116 106.906C246.92 106.415 245.892 105.802 245.034 105.066C244.175 104.299 243.516 103.394 243.056 102.352C242.596 101.309 242.366 100.098 242.366 98.7178C242.366 96.8471 242.856 95.2371 243.838 93.8878C244.819 92.5385 246.153 91.4958 247.84 90.7598C249.526 90.0238 251.428 89.6558 253.544 89.6558C255.476 89.6558 257.285 89.9625 258.972 90.5758C260.658 91.1585 262.023 91.9558 263.066 92.9678C263.802 93.6118 264.17 94.3018 264.17 95.0378C264.17 95.5898 263.94 96.1111 263.48 96.6018C263.05 97.0618 262.544 97.2918 261.962 97.2918C261.532 97.2918 261.164 97.1691 260.858 96.9238C260.367 96.4025 259.708 95.9425 258.88 95.5438C258.052 95.1145 257.162 94.7618 256.212 94.4858C255.292 94.2098 254.402 94.0718 253.544 94.0718C252.164 94.0718 250.983 94.2711 250.002 94.6698C249.02 95.0378 248.269 95.5591 247.748 96.2338C247.226 96.8778 246.966 97.6445 246.966 98.5338C246.966 99.5765 247.257 100.435 247.84 101.11C248.453 101.784 249.296 102.336 250.37 102.766C251.443 103.164 252.67 103.532 254.05 103.87C255.736 104.238 257.239 104.652 258.558 105.112C259.907 105.572 261.042 106.17 261.962 106.906C262.882 107.611 263.587 108.5 264.078 109.574C264.568 110.647 264.814 111.981 264.814 113.576C264.814 115.416 264.292 117.026 263.25 118.406C262.207 119.786 260.827 120.859 259.11 121.626C257.423 122.392 255.537 122.776 253.452 122.776Z" fill="black"/>
<path d="M159.95 113.684C159.214 113.684 158.616 113.47 158.156 113.04C157.727 112.58 157.512 112.013 157.512 111.338V83.7842H162.434V111.338C162.434 112.013 162.189 112.58 161.698 113.04C161.238 113.47 160.656 113.684 159.95 113.684ZM149.508 85.9002C148.864 85.9002 148.312 85.7009 147.852 85.3022C147.392 84.8729 147.162 84.3209 147.162 83.6462C147.162 83.0022 147.392 82.4809 147.852 82.0822C148.312 81.6835 148.864 81.4842 149.508 81.4842H170.438C171.082 81.4842 171.619 81.6989 172.048 82.1282C172.508 82.5269 172.738 83.0482 172.738 83.6922C172.738 84.3669 172.508 84.9035 172.048 85.3022C171.619 85.7009 171.082 85.9002 170.438 85.9002H149.508Z" fill="black"/>
<path d="M115.839 81.5C114.624 81.5 113.639 82.485 113.639 83.7C113.639 84.915 114.624 85.9 115.839 85.9V81.5ZM168.999 81.5H115.839V85.9H168.999V81.5Z" fill="black"/>
<path d="M157.5 120.105C157.5 121.458 158.597 122.555 159.95 122.555C161.303 122.555 162.4 121.458 162.4 120.105H157.5ZM157.5 98V120.105H162.4V98H157.5Z" fill="black"/>
<path d="M108.704 37.1423C109.109 39.9585 109.625 42.6476 110.237 45.1346C110.425 45.8972 115.598 53.8824 116.268 53.8824C116.403 53.8824 117.71 53.925 117.847 53.8824C118.662 53.6285 113.336 44.0742 113.111 43.1579C112.6 41.085 113.111 39.1413 113.111 36.8421C113.111 34.5429 122.367 31.3645 130.172 28.5826L134.852 29.6557C135.651 29.9626 136.522 29.4827 136.795 28.5826C137.068 27.6828 136.641 26.7043 135.841 26.3972L131.122 24.5851C130.815 24.4672 130.482 24.4621 130.172 24.5707C123.342 26.9647 113.759 31.2764 109.231 35.5484C108.818 35.9379 108.618 36.5436 108.704 37.1423Z" fill="black"/>
<path d="M104.092 41.0203C104.371 41.1549 104.675 41.2191 104.975 41.2191C105.596 41.2191 106.2 40.944 106.53 40.4535C107.019 39.7263 107.947 38.8351 107.089 38.4211C102.683 36.295 94.4146 29.4529 88.1415 22.6316V19.4737C88.1157 18.6372 87.0902 17.5443 86.1098 17.5671C85.1226 17.589 84.3432 18.2849 84.369 19.1213L84.5216 24.0557C84.5315 24.3769 84.6619 24.6872 84.8935 24.9415C89.9997 30.5491 98.0915 38.1247 104.092 41.0203Z" fill="black"/>
<path d="M115.947 54.2105L108.052 54.2105L98.5786 54.2105L98.4778 69.7837C98.481 70.6861 97.5976 71.3931 96.5249 71.3576C95.4466 71.3291 94.5706 70.5678 94.5783 69.6674L94.6089 50.6655C94.6058 50.1962 94.8459 49.751 95.2734 49.4556C95.7135 49.1589 96.2645 49.034 96.8213 49.1131L112.852 51.4104L115.947 54.2105Z" fill="black"/>
<path d="M113.223 53.6959L96.5827 52.0984L99.8552 49.9684C100.173 49.7323 101.139 49.84 101.431 49.8753L115.74 51.2668L115.74 52.5564C115.727 52.5915 117.422 53.0772 117.209 53.3168C117.178 53.3498 117.168 53.3959 117.138 53.4232L114.975 53.8205L113.223 53.6959Z" fill="black"/>
<path d="M117.84 53.7989L108.366 63.2726L121.159 74.7403C121.859 75.3096 121.846 76.441 121.139 77.2484C120.434 78.0645 119.29 78.2596 118.598 77.6831L103.918 65.6181C103.553 65.3231 103.361 64.8553 103.403 64.3374C103.452 63.809 103.705 63.3035 104.119 62.923L114.146 52.3364L117.84 53.7989Z" fill="black"/>
<path d="M111.69 27.1099C104.03 32.2755 98.5125 29.0387 98.4795 23.8021C98.4472 18.6725 102.823 16.058 105.382 16.1567C111.301 16.3847 115.484 25.7594 110.557 27.6211" stroke="#141414" stroke-width="3.25" stroke-linecap="round" stroke-linejoin="round"/>
</svg>
