<svg width="288" height="225" viewBox="0 0 288 225" fill="none" xmlns="http://www.w3.org/2000/svg">
<g clip-path="url(#clip0_135_444)">
<path d="M128.027 137.104C130.918 137.104 133.261 134.418 133.261 131.104C133.261 127.791 130.918 125.104 128.027 125.104V137.104ZM14.2606 137.104H128.027V125.104H14.2606V137.104Z" fill="#333333"/>
<path d="M15 183.004C15 186.826 17.6863 189.925 21 189.925C24.3137 189.925 27 186.826 27 183.004H15ZM15 136.421V183.004H27V136.421H15Z" fill="#333333"/>
<path d="M156.68 146C153.863 146 151.579 148.686 151.579 152C151.579 155.314 153.863 158 156.68 158V146ZM267.579 146H156.68V158H267.579V146Z" fill="#333333"/>
<path d="M255.842 203.162C255.842 206.984 258.528 210.083 261.842 210.083C265.156 210.083 267.842 206.984 267.842 203.162H255.842ZM255.842 156.579V203.162H267.842V156.579H255.842Z" fill="#333333"/>
<path d="M153.692 57.1945C154.545 63.1292 155.633 68.7962 156.924 74.0367C157.32 75.6439 168.219 92.4716 169.632 92.4716C169.917 92.4716 172.671 92.5614 172.96 92.4716C174.676 91.9365 163.454 71.8021 162.979 69.8716C161.903 65.503 162.979 61.4071 162.979 56.562C162.979 51.7169 182.484 45.0191 198.933 39.1566L208.795 41.418C210.479 42.0647 212.313 41.0534 212.889 39.1566C213.464 37.2604 212.564 35.1985 210.879 34.5512L200.934 30.7326C200.287 30.4841 199.586 30.4734 198.933 30.7022C184.539 35.7471 164.344 44.8332 154.804 53.8358C153.933 54.6565 153.511 55.9329 153.692 57.1945Z" fill="#333333"/>
<path d="M143.971 65.3665C144.56 65.6502 145.201 65.7855 145.833 65.7855C147.142 65.7855 148.415 65.2058 149.11 64.172C150.14 62.6397 152.096 60.7616 150.287 59.8891C141.003 55.4087 123.579 40.9902 110.359 26.6156V19.961C110.305 18.1981 108.144 15.8952 106.078 15.9431C103.997 15.9892 102.355 17.4558 102.41 19.2183L102.731 29.6167C102.752 30.2936 103.027 30.9474 103.515 31.4835C114.275 43.3003 131.327 59.2645 143.971 65.3665Z" fill="#333333"/>
<path d="M168.956 93.1678H152.319H132.355L132.143 125.985C132.15 127.887 130.288 129.377 128.028 129.302C125.755 129.242 123.91 127.638 123.926 125.741L123.99 85.6973C123.984 84.7084 124.49 83.7701 125.391 83.1478C126.318 82.5223 127.479 82.2594 128.653 82.4258L162.435 87.2671L168.956 93.1678Z" fill="#333333"/>
<path d="M163.214 92.0766L128.148 88.7107L135.045 84.2221C135.713 83.7243 137.75 83.9513 138.365 84.0258L168.518 86.9578L168.519 89.6756C168.491 89.7495 172.063 90.773 171.613 91.2781C171.55 91.3473 171.528 91.4444 171.465 91.5023L166.906 92.3395L163.214 92.0766Z" fill="#333333"/>
<path d="M172.945 92.2976L152.981 112.262L179.94 136.428C181.416 137.627 181.389 140.012 179.898 141.713C178.412 143.433 176.001 143.844 174.543 142.63L143.607 117.205C142.838 116.583 142.433 115.597 142.523 114.506C142.627 113.392 143.159 112.327 144.031 111.525L165.162 89.2158L172.945 92.2976Z" fill="#333333"/>
<path d="M159.983 36.0544C143.84 46.9398 132.213 40.1188 132.144 29.0838C132.076 18.274 141.297 12.7644 146.691 12.9725C159.162 13.4529 167.978 33.2082 157.596 37.1316" stroke="#333333" stroke-width="7.25" stroke-linecap="round" stroke-linejoin="round"/>
<path d="M-34.7864 42.1057C-35.2319 41.6219 -35.5505 41.0439 -35.7368 40.4346C-36.1227 39.1723 -35.9417 37.7753 -35.1545 36.8031C-33.9881 35.3608 -32.763 32.9243 -31.3929 34.4117C-24.359 42.0465 -5.39269 54.6114 12.2925 63.1369L18.6764 61.1851C20.3836 60.7207 23.2296 62.1279 23.7925 64.1335C24.3612 66.152 23.4383 68.1651 21.7314 68.6294L11.6614 71.3694C11.0057 71.5474 10.2977 71.4749 9.63955 71.1614C-4.86714 64.2563 -25.2066 52.5033 -34.7864 42.1057Z" fill="#333333"/>
<path d="M54.0736 76.3898C56.9358 75.9875 58.8821 73.0013 58.4209 69.7199C57.9598 66.4384 55.2657 64.1043 52.4036 64.5066L54.0736 76.3898ZM-58.5859 92.2231L54.0736 76.3898L52.4036 64.5066L-60.256 80.3398L-58.5859 92.2231Z" fill="#333333"/>
</g>
<defs>
<clipPath id="clip0_135_444">
<rect width="288" height="225" fill="white"/>
</clipPath>
</defs>
</svg>
