<svg width="93" height="40" viewBox="0 0 93 40" fill="none" xmlns="http://www.w3.org/2000/svg">
<path d="M4.944 28.3961C4.688 28.3961 4.48 28.3214 4.32 28.1721C4.17067 28.0121 4.096 27.8147 4.096 27.5801V17.9961H5.808V27.5801C5.808 27.8147 5.72267 28.0121 5.552 28.1721C5.392 28.3214 5.18933 28.3961 4.944 28.3961ZM1.312 18.7321C1.088 18.7321 0.896 18.6627 0.736 18.5241C0.576 18.3747 0.496 18.1827 0.496 17.9481C0.496 17.7241 0.576 17.5427 0.736 17.4041C0.896 17.2654 1.088 17.1961 1.312 17.1961H8.592C8.816 17.1961 9.00267 17.2707 9.152 17.4201C9.312 17.5587 9.392 17.7401 9.392 17.9641C9.392 18.1987 9.312 18.3854 9.152 18.5241C9.00267 18.6627 8.816 18.7321 8.592 18.7321H1.312Z" fill="black"/>
<path d="M28 18.7349C28.4253 18.7349 28.77 18.3902 28.77 17.9649C28.77 17.5396 28.4253 17.1949 28 17.1949V18.7349ZM8 18.7349H28V17.1949H8V18.7349Z" fill="black"/>
<path d="M4.09495 34.5499C4.09495 35.0221 4.47775 35.4049 4.94995 35.4049C5.42215 35.4049 5.80495 35.0221 5.80495 34.5499H4.09495ZM4.09495 27.5499V34.5499H5.80495V27.5499H4.09495Z" fill="black"/>
<path d="M10.112 24.1961H15.648C15.872 24.1961 16.0587 24.2707 16.208 24.4201C16.368 24.5694 16.448 24.7561 16.448 24.9801C16.448 25.2041 16.368 25.3854 16.208 25.5241C16.0587 25.6627 15.872 25.7321 15.648 25.7321H10.816L10.976 25.4601V29.0441L10.832 28.8841H14.928C15.152 28.8841 15.3387 28.9587 15.488 29.1081C15.648 29.2574 15.728 29.4494 15.728 29.6841C15.728 29.9081 15.648 30.0894 15.488 30.2281C15.3387 30.3667 15.152 30.4361 14.928 30.4361H10.864L10.976 30.2921V33.9881L10.864 33.8601H15.648C15.872 33.8601 16.0587 33.9401 16.208 34.1001C16.368 34.2494 16.448 34.4254 16.448 34.6281C16.448 34.8521 16.368 35.0387 16.208 35.1881C16.0587 35.3267 15.872 35.3961 15.648 35.3961H10.112C9.888 35.3961 9.696 35.3214 9.536 35.1721C9.376 35.0121 9.296 34.8147 9.296 34.5801V25.0121C9.296 24.7774 9.376 24.5854 9.536 24.4361C9.696 24.2761 9.888 24.1961 10.112 24.1961ZM26.3886 24.8361C26.6233 24.9534 26.7566 25.1347 26.7886 25.3801C26.8313 25.6254 26.7726 25.8494 26.6126 26.0521C26.4953 26.2121 26.3406 26.3027 26.1486 26.3241C25.9673 26.3454 25.786 26.3081 25.6046 26.2121C25.2953 26.0521 24.97 25.9241 24.6286 25.8281C24.2873 25.7321 23.9246 25.6841 23.5406 25.6841C22.9326 25.6841 22.3833 25.7854 21.8926 25.9881C21.4126 26.1801 20.9966 26.4627 20.6446 26.8361C20.2926 27.1987 20.0206 27.6307 19.8286 28.1321C19.6473 28.6334 19.5566 29.1881 19.5566 29.7961C19.5566 30.4681 19.658 31.0654 19.8606 31.5881C20.0633 32.1001 20.3406 32.5374 20.6926 32.9001C21.0553 33.2521 21.4766 33.5187 21.9566 33.7001C22.4473 33.8707 22.9753 33.9561 23.5406 33.9561C23.9033 33.9561 24.2553 33.9134 24.5966 33.8281C24.9486 33.7427 25.2793 33.6147 25.5886 33.4441C25.7806 33.3481 25.9673 33.3161 26.1486 33.3481C26.3406 33.3694 26.4953 33.4601 26.6126 33.6201C26.794 33.8441 26.858 34.0734 26.8046 34.3081C26.762 34.5321 26.6286 34.7027 26.4046 34.8201C26.138 34.9694 25.8446 35.0974 25.5246 35.2041C25.2046 35.3107 24.8793 35.3961 24.5486 35.4601C24.218 35.5241 23.882 35.5561 23.5406 35.5561C22.7726 35.5561 22.0473 35.4281 21.3646 35.1721C20.682 34.9161 20.074 34.5427 19.5406 34.0521C19.0073 33.5614 18.586 32.9587 18.2766 32.2441C17.978 31.5294 17.8286 30.7134 17.8286 29.7961C17.8286 28.9747 17.9673 28.2174 18.2446 27.5241C18.5326 26.8201 18.9326 26.2174 19.4446 25.7161C19.9673 25.2041 20.5753 24.8094 21.2686 24.5321C21.962 24.2441 22.7193 24.1001 23.5406 24.1001C24.0526 24.1001 24.5486 24.1641 25.0286 24.2921C25.5193 24.4201 25.9726 24.6014 26.3886 24.8361ZM29.4725 24.1961C29.6858 24.1961 29.8725 24.2761 30.0325 24.4361C30.2032 24.5854 30.2885 24.7774 30.2885 25.0121V34.5801C30.2778 34.8147 30.1872 35.0121 30.0165 35.1721C29.8565 35.3214 29.6645 35.3961 29.4405 35.3961C29.1952 35.3961 28.9925 35.3214 28.8325 35.1721C28.6832 35.0121 28.6085 34.8147 28.6085 34.5801V25.0121C28.6085 24.7774 28.6885 24.5854 28.8485 24.4361C29.0085 24.2761 29.2165 24.1961 29.4725 24.1961ZM36.6885 24.1961C36.9445 24.1961 37.1472 24.2761 37.2965 24.4361C37.4458 24.5854 37.5205 24.7774 37.5205 25.0121V34.5801C37.5205 34.8147 37.4405 35.0121 37.2805 35.1721C37.1312 35.3214 36.9285 35.3961 36.6725 35.3961C36.4485 35.3961 36.2565 35.3214 36.0965 35.1721C35.9365 35.0121 35.8565 34.8147 35.8565 34.5801V25.0121C35.8565 24.7774 35.9365 24.5854 36.0965 24.4361C36.2672 24.2761 36.4645 24.1961 36.6885 24.1961ZM29.4085 28.9641H36.7045L36.6885 30.5001H29.3925L29.4085 28.9641ZM43.5485 35.5561C42.7805 35.5561 42.0978 35.4494 41.5005 35.2361C40.9032 35.0227 40.3325 34.6707 39.7885 34.1801C39.6712 34.0947 39.5805 33.9934 39.5165 33.8761C39.4632 33.7481 39.4365 33.6201 39.4365 33.4921C39.4365 33.2894 39.5112 33.1081 39.6605 32.9481C39.8098 32.7881 39.9965 32.7081 40.2205 32.7081C40.3912 32.7081 40.5512 32.7667 40.7005 32.8841C41.1058 33.2574 41.5272 33.5401 41.9645 33.7321C42.4125 33.9241 42.9352 34.0201 43.5325 34.0201C43.9592 34.0201 44.3485 33.9507 44.7005 33.8121C45.0632 33.6734 45.3512 33.4867 45.5645 33.2521C45.7778 33.0174 45.8845 32.7454 45.8845 32.4361C45.8845 32.0521 45.7725 31.7374 45.5485 31.4921C45.3352 31.2361 45.0205 31.0281 44.6045 30.8681C44.1992 30.6974 43.7085 30.5534 43.1325 30.4361C42.5992 30.3401 42.1192 30.2067 41.6925 30.0361C41.2765 29.8654 40.9192 29.6521 40.6205 29.3961C40.3218 29.1294 40.0925 28.8147 39.9325 28.4521C39.7725 28.0894 39.6925 27.6681 39.6925 27.1881C39.6925 26.5374 39.8632 25.9774 40.2045 25.5081C40.5458 25.0387 41.0098 24.6761 41.5965 24.4201C42.1832 24.1641 42.8445 24.0361 43.5805 24.0361C44.2525 24.0361 44.8818 24.1427 45.4685 24.3561C46.0552 24.5587 46.5298 24.8361 46.8925 25.1881C47.1485 25.4121 47.2765 25.6521 47.2765 25.9081C47.2765 26.1001 47.1965 26.2814 47.0365 26.4521C46.8872 26.6121 46.7112 26.6921 46.5085 26.6921C46.3592 26.6921 46.2312 26.6494 46.1245 26.5641C45.9538 26.3827 45.7245 26.2227 45.4365 26.0841C45.1485 25.9347 44.8392 25.8121 44.5085 25.7161C44.1885 25.6201 43.8792 25.5721 43.5805 25.5721C43.1005 25.5721 42.6898 25.6414 42.3485 25.7801C42.0072 25.9081 41.7458 26.0894 41.5645 26.3241C41.3832 26.5481 41.2925 26.8147 41.2925 27.1241C41.2925 27.4867 41.3938 27.7854 41.5965 28.0201C41.8098 28.2547 42.1032 28.4467 42.4765 28.5961C42.8498 28.7347 43.2765 28.8627 43.7565 28.9801C44.3432 29.1081 44.8658 29.2521 45.3245 29.4121C45.7938 29.5721 46.1885 29.7801 46.5085 30.0361C46.8285 30.2814 47.0738 30.5907 47.2445 30.9641C47.4152 31.3374 47.5005 31.8014 47.5005 32.3561C47.5005 32.9961 47.3192 33.5561 46.9565 34.0361C46.5938 34.5161 46.1138 34.8894 45.5165 35.1561C44.9298 35.4227 44.2738 35.5561 43.5485 35.5561Z" fill="black"/>
<path d="M60.976 34.5801C60.9653 34.8147 60.8747 35.0121 60.704 35.1721C60.544 35.3214 60.352 35.3961 60.128 35.3961C59.8827 35.3961 59.68 35.3214 59.52 35.1721C59.3707 35.0121 59.296 34.8147 59.296 34.5801V25.0121C59.296 24.7774 59.376 24.5854 59.536 24.4361C59.696 24.2761 59.904 24.1961 60.16 24.1961C60.3733 24.1961 60.56 24.2761 60.72 24.4361C60.8907 24.5854 60.976 24.7774 60.976 25.0121V34.5801ZM71.5136 24.8361C71.7483 24.9534 71.8816 25.1347 71.9136 25.3801C71.9563 25.6254 71.8976 25.8494 71.7376 26.0521C71.6203 26.2121 71.4656 26.3027 71.2736 26.3241C71.0923 26.3454 70.911 26.3081 70.7296 26.2121C70.4203 26.0521 70.095 25.9241 69.7536 25.8281C69.4123 25.7321 69.0496 25.6841 68.6656 25.6841C68.0576 25.6841 67.5083 25.7854 67.0176 25.9881C66.5376 26.1801 66.1216 26.4627 65.7696 26.8361C65.4176 27.1987 65.1456 27.6307 64.9536 28.1321C64.7723 28.6334 64.6816 29.1881 64.6816 29.7961C64.6816 30.4681 64.783 31.0654 64.9856 31.5881C65.1883 32.1001 65.4656 32.5374 65.8176 32.9001C66.1803 33.2521 66.6016 33.5187 67.0816 33.7001C67.5723 33.8707 68.1003 33.9561 68.6656 33.9561C69.0283 33.9561 69.3803 33.9134 69.7216 33.8281C70.0736 33.7427 70.4043 33.6147 70.7136 33.4441C70.9056 33.3481 71.0923 33.3161 71.2736 33.3481C71.4656 33.3694 71.6203 33.4601 71.7376 33.6201C71.919 33.8441 71.983 34.0734 71.9296 34.3081C71.887 34.5321 71.7536 34.7027 71.5296 34.8201C71.263 34.9694 70.9696 35.0974 70.6496 35.2041C70.3296 35.3107 70.0043 35.3961 69.6736 35.4601C69.343 35.5241 69.007 35.5561 68.6656 35.5561C67.8976 35.5561 67.1723 35.4281 66.4896 35.1721C65.807 34.9161 65.199 34.5427 64.6656 34.0521C64.1323 33.5614 63.711 32.9587 63.4016 32.2441C63.103 31.5294 62.9536 30.7134 62.9536 29.7961C62.9536 28.9747 63.0923 28.2174 63.3696 27.5241C63.6576 26.8201 64.0576 26.2174 64.5696 25.7161C65.0923 25.2041 65.7003 24.8094 66.3936 24.5321C67.087 24.2441 67.8443 24.1001 68.6656 24.1001C69.1776 24.1001 69.6736 24.1641 70.1536 24.2921C70.6443 24.4201 71.0976 24.6014 71.5136 24.8361ZM81.5415 35.4121C81.2962 35.4121 81.0988 35.3107 80.9495 35.1081L76.9655 29.9721L78.1975 28.7241L82.2615 34.0201C82.3895 34.1907 82.4535 34.3774 82.4535 34.5801C82.4535 34.8361 82.3575 35.0387 82.1655 35.1881C81.9735 35.3374 81.7655 35.4121 81.5415 35.4121ZM81.6215 24.1481C81.8348 24.1481 82.0108 24.2334 82.1495 24.4041C82.2882 24.5747 82.3575 24.7507 82.3575 24.9321C82.3575 25.1241 82.2775 25.3001 82.1175 25.4601L75.2215 32.0041L75.1255 30.1161L80.9815 24.4521C81.1735 24.2494 81.3868 24.1481 81.6215 24.1481ZM74.5655 35.3961C74.3202 35.3961 74.1175 35.3214 73.9575 35.1721C73.8082 35.0121 73.7335 34.8147 73.7335 34.5801V25.0121C73.7335 24.7774 73.8135 24.5854 73.9735 24.4361C74.1335 24.2761 74.3415 24.1961 74.5975 24.1961C74.8428 24.1961 75.0402 24.2761 75.1895 24.4361C75.3388 24.5854 75.4135 24.7774 75.4135 25.0121V34.5801C75.4028 34.8147 75.3228 35.0121 75.1735 35.1721C75.0242 35.3214 74.8215 35.3961 74.5655 35.3961ZM87.611 35.5561C86.843 35.5561 86.1603 35.4494 85.563 35.2361C84.9657 35.0227 84.395 34.6707 83.851 34.1801C83.7337 34.0947 83.643 33.9934 83.579 33.8761C83.5257 33.7481 83.499 33.6201 83.499 33.4921C83.499 33.2894 83.5737 33.1081 83.723 32.9481C83.8723 32.7881 84.059 32.7081 84.283 32.7081C84.4537 32.7081 84.6137 32.7667 84.763 32.8841C85.1683 33.2574 85.5897 33.5401 86.027 33.7321C86.475 33.9241 86.9977 34.0201 87.595 34.0201C88.0217 34.0201 88.411 33.9507 88.763 33.8121C89.1257 33.6734 89.4137 33.4867 89.627 33.2521C89.8403 33.0174 89.947 32.7454 89.947 32.4361C89.947 32.0521 89.835 31.7374 89.611 31.4921C89.3977 31.2361 89.083 31.0281 88.667 30.8681C88.2617 30.6974 87.771 30.5534 87.195 30.4361C86.6617 30.3401 86.1817 30.2067 85.755 30.0361C85.339 29.8654 84.9817 29.6521 84.683 29.3961C84.3843 29.1294 84.155 28.8147 83.995 28.4521C83.835 28.0894 83.755 27.6681 83.755 27.1881C83.755 26.5374 83.9257 25.9774 84.267 25.5081C84.6083 25.0387 85.0723 24.6761 85.659 24.4201C86.2457 24.1641 86.907 24.0361 87.643 24.0361C88.315 24.0361 88.9443 24.1427 89.531 24.3561C90.1177 24.5587 90.5923 24.8361 90.955 25.1881C91.211 25.4121 91.339 25.6521 91.339 25.9081C91.339 26.1001 91.259 26.2814 91.099 26.4521C90.9497 26.6121 90.7737 26.6921 90.571 26.6921C90.4217 26.6921 90.2937 26.6494 90.187 26.5641C90.0163 26.3827 89.787 26.2227 89.499 26.0841C89.211 25.9347 88.9017 25.8121 88.571 25.7161C88.251 25.6201 87.9417 25.5721 87.643 25.5721C87.163 25.5721 86.7523 25.6414 86.411 25.7801C86.0697 25.9081 85.8083 26.0894 85.627 26.3241C85.4457 26.5481 85.355 26.8147 85.355 27.1241C85.355 27.4867 85.4563 27.7854 85.659 28.0201C85.8723 28.2547 86.1657 28.4467 86.539 28.5961C86.9123 28.7347 87.339 28.8627 87.819 28.9801C88.4057 29.1081 88.9283 29.2521 89.387 29.4121C89.8563 29.5721 90.251 29.7801 90.571 30.0361C90.891 30.2814 91.1363 30.5907 91.307 30.9641C91.4777 31.3374 91.563 31.8014 91.563 32.3561C91.563 32.9961 91.3817 33.5561 91.019 34.0361C90.6563 34.5161 90.1763 34.8894 89.579 35.1561C88.9923 35.4227 88.3363 35.5561 87.611 35.5561Z" fill="black"/>
<path d="M53.944 31.3961C53.688 31.3961 53.48 31.3214 53.32 31.1721C53.1707 31.0121 53.096 30.8147 53.096 30.5801V20.9961H54.808V30.5801C54.808 30.8147 54.7227 31.0121 54.552 31.1721C54.392 31.3214 54.1893 31.3961 53.944 31.3961ZM50.312 21.7321C50.088 21.7321 49.896 21.6627 49.736 21.5241C49.576 21.3747 49.496 21.1827 49.496 20.9481C49.496 20.7241 49.576 20.5427 49.736 20.4041C49.896 20.2654 50.088 20.1961 50.312 20.1961H57.592C57.816 20.1961 58.0027 20.2707 58.152 20.4201C58.312 20.5587 58.392 20.7401 58.392 20.9641C58.392 21.1987 58.312 21.3854 58.152 21.5241C58.0027 21.6627 57.816 21.7321 57.592 21.7321H50.312Z" fill="black"/>
<path d="M31.5 20.1899C31.0747 20.1899 30.73 20.5346 30.73 20.9599C30.73 21.3852 31.0747 21.7299 31.5 21.7299V20.1899ZM51.5 20.1899L31.5 20.1899V21.7299L51.5 21.7299V20.1899Z" fill="black"/>
<path d="M53.1 34.5499C53.1 35.0193 53.4805 35.3999 53.95 35.3999C54.4194 35.3999 54.8 35.0193 54.8 34.5499H53.1ZM53.1 27.5499V34.5499H54.8V27.5499H53.1Z" fill="black"/>
<path d="M31.1045 7.59508C31.2328 8.48688 31.3961 9.33844 31.5901 10.126C31.6496 10.3675 33.2875 12.8961 33.4998 12.8961C33.5427 12.8961 33.9566 12.9096 33.9998 12.8961C34.2578 12.8157 32.5956 10.1251 32.5242 9.8349C32.3625 9.17847 32.223 8.47366 32.1084 7.73579C33.2556 6.77277 35.5689 5.58914 38.0408 4.70819L39.3848 5.22434C39.6378 5.32152 39.9135 5.16955 40 4.88452C40.0864 4.59959 39.9512 4.28973 39.6979 4.19247L38.2036 3.61864C38.1063 3.58131 38.001 3.57969 37.9029 3.61408C35.7398 4.37218 32.7052 5.73755 31.2715 7.09036C31.1406 7.21369 31.0772 7.4055 31.1045 7.59508Z" fill="black"/>
<path d="M29.5508 8.8231C29.6393 8.86573 29.7356 8.88606 29.8306 8.88606C30.0274 8.88606 30.2187 8.79894 30.323 8.6436C30.4778 8.41334 30.383 8.1204 30.1113 7.98927C28.7161 7.31602 26.4673 5.42877 24.4808 3.2687L24.4374 1.86329C24.4292 1.59839 24.1671 1.38904 23.8566 1.39624C23.544 1.40317 23.2972 1.62355 23.3054 1.8884L23.3537 3.45097C23.3568 3.55269 23.3981 3.65094 23.4715 3.73149C25.0884 5.5072 27.6508 7.90614 29.5508 8.8231Z" fill="black"/>
<path d="M33.5002 12.8961L27.9782 12.5052L27.9681 17.9316C27.9691 18.2173 27.6894 18.4412 27.3497 18.43C27.0082 18.4209 26.7308 18.1799 26.7332 17.8947L26.7429 11.8775C26.742 11.7288 26.818 11.5879 26.9534 11.4943C27.0927 11.4004 27.2672 11.3608 27.4435 11.3859L32.52 12.1133L33.5002 12.8961Z" fill="black"/>
<path d="M32.5935 12.9082L27.324 12.4024L28.3603 11.7279C28.4609 11.6531 28.7669 11.6872 28.8593 11.6984L33.3904 12.139L33.3906 12.5474C33.3864 12.5585 33.9232 12.7123 33.8556 12.7882C33.846 12.7986 33.8427 12.8132 33.8332 12.8219L33.1481 12.9477L32.5935 12.9082Z" fill="black"/>
<path d="M34 12.9999L31.3598 16.185L35.5511 19.6314C35.7729 19.8117 35.7688 20.17 35.5448 20.4257C35.3215 20.6841 34.9592 20.7459 34.7401 20.5633L30.0914 16.7427C29.9758 16.6493 29.9149 16.5012 29.9284 16.3372C29.944 16.1698 30.024 16.0098 30.1551 15.8893L33.3304 12.5369L34 12.9999Z" fill="black"/>
<path d="M32.5026 3.50585C30.9955 6.0135 28.9788 5.82292 28.2686 4.32446C27.5728 2.85659 28.4787 1.52064 29.2265 1.20644C30.9556 0.479822 33.4107 2.61049 32.246 3.80415" stroke="#141414" stroke-linecap="round" stroke-linejoin="round"/>
</svg>
