<svg width="95" height="41" viewBox="0 0 95 41" fill="none" xmlns="http://www.w3.org/2000/svg">
<rect width="95" height="40" fill="white"/>
<path d="M5.992 30C5.69333 30 5.448 29.9093 5.256 29.728C5.064 29.536 4.968 29.3013 4.968 29.024V19.744H7.048V29.024C7.048 29.3013 6.94667 29.536 6.744 29.728C6.552 29.9093 6.30133 30 5.992 30ZM2.456 20.64C2.17867 20.64 1.944 20.5547 1.752 20.384C1.57067 20.2133 1.48 19.9893 1.48 19.712C1.48 19.4347 1.57067 19.216 1.752 19.056C1.944 18.8853 2.17867 18.8 2.456 18.8H9.56C9.83733 18.8 10.0667 18.8853 10.248 19.056C10.44 19.2267 10.536 19.4507 10.536 19.728C10.536 20.0053 10.44 20.2293 10.248 20.4C10.0667 20.56 9.83733 20.64 9.56 20.64H2.456Z" fill="black"/>
<path d="M29 20.64C29.5081 20.64 29.92 20.2281 29.92 19.72C29.92 19.2119 29.5081 18.8 29 18.8V20.64ZM9 20.64H29V18.8H9V20.64Z" fill="black"/>
<path d="M4.97001 36C4.97001 36.5744 5.43563 37.04 6.01001 37.04C6.58439 37.04 7.05001 36.5744 7.05001 36H4.97001ZM4.97001 29V36H7.05001V29H4.97001Z" fill="black"/>
<path d="M11.176 25.8H16.536C16.8133 25.8 17.0427 25.8907 17.224 26.072C17.416 26.2427 17.512 26.4667 17.512 26.744C17.512 27.0107 17.416 27.2293 17.224 27.4C17.0427 27.56 16.8133 27.64 16.536 27.64H12.056L12.2 27.368V30.488L12.072 30.36H15.816C16.0933 30.36 16.3227 30.4507 16.504 30.632C16.696 30.8027 16.792 31.0267 16.792 31.304C16.792 31.5707 16.696 31.7893 16.504 31.96C16.3227 32.12 16.0933 32.2 15.816 32.2H12.12L12.2 32.072V35.304L12.072 35.16H16.536C16.8133 35.16 17.0427 35.256 17.224 35.448C17.416 35.6293 17.512 35.8427 17.512 36.088C17.512 36.3547 17.416 36.5733 17.224 36.744C17.0427 36.9147 16.8133 37 16.536 37H11.176C10.8987 37 10.664 36.9093 10.472 36.728C10.2907 36.536 10.2 36.3013 10.2 36.024V26.776C10.2 26.4987 10.2907 26.2693 10.472 26.088C10.664 25.896 10.8987 25.8 11.176 25.8ZM27.1962 26.344C27.4736 26.4827 27.6336 26.7013 27.6763 27C27.7296 27.2987 27.6549 27.5707 27.4523 27.816C27.3136 28.008 27.1323 28.1147 26.9083 28.136C26.6949 28.1573 26.4763 28.1147 26.2523 28.008C25.9963 27.8907 25.7243 27.8 25.4363 27.736C25.1589 27.672 24.8656 27.64 24.5563 27.64C23.9803 27.64 23.4629 27.7307 23.0043 27.912C22.5563 28.0933 22.1723 28.3547 21.8523 28.696C21.5323 29.0267 21.2869 29.4213 21.1163 29.88C20.9563 30.3387 20.8763 30.8453 20.8763 31.4C20.8763 32.0507 20.9669 32.616 21.1483 33.096C21.3403 33.576 21.6016 33.976 21.9323 34.296C22.2629 34.616 22.6523 34.856 23.1003 35.016C23.5483 35.1653 24.0336 35.24 24.5563 35.24C24.8443 35.24 25.1323 35.2133 25.4203 35.16C25.7083 35.1067 25.9856 35.0107 26.2523 34.872C26.4763 34.7653 26.6949 34.728 26.9083 34.76C27.1323 34.792 27.3189 34.904 27.4683 35.096C27.6816 35.3627 27.7563 35.64 27.6923 35.928C27.6389 36.2053 27.4789 36.408 27.2123 36.536C26.9349 36.6747 26.6469 36.792 26.3483 36.888C26.0603 36.9733 25.7669 37.0373 25.4683 37.08C25.1696 37.1333 24.8656 37.16 24.5563 37.16C23.7883 37.16 23.0576 37.0373 22.3643 36.792C21.6816 36.5467 21.0683 36.184 20.5243 35.704C19.9909 35.224 19.5696 34.6267 19.2603 33.912C18.9509 33.1867 18.7963 32.3493 18.7963 31.4C18.7963 30.5787 18.9349 29.8213 19.2122 29.128C19.5003 28.4347 19.9003 27.8373 20.4123 27.336C20.9349 26.824 21.5483 26.4293 22.2523 26.152C22.9563 25.864 23.7243 25.72 24.5563 25.72C25.0256 25.72 25.4843 25.7733 25.9323 25.88C26.3803 25.9867 26.8016 26.1413 27.1962 26.344ZM30.4115 25.8C30.6675 25.8 30.8915 25.896 31.0835 26.088C31.2862 26.2693 31.3875 26.4987 31.3875 26.776V36.024C31.3875 36.3013 31.2862 36.536 31.0835 36.728C30.8808 36.9093 30.6462 37 30.3795 37C30.0808 37 29.8408 36.9093 29.6595 36.728C29.4782 36.536 29.3875 36.3013 29.3875 36.024V26.776C29.3875 26.4987 29.4835 26.2693 29.6755 26.088C29.8675 25.896 30.1128 25.8 30.4115 25.8ZM37.4995 25.8C37.7982 25.8 38.0382 25.896 38.2195 26.088C38.4008 26.2693 38.4915 26.4987 38.4915 26.776V36.024C38.4915 36.3013 38.3955 36.536 38.2035 36.728C38.0222 36.9093 37.7768 37 37.4675 37C37.2115 37 36.9822 36.9093 36.7795 36.728C36.5875 36.536 36.4915 36.3013 36.4915 36.024V26.776C36.4915 26.4987 36.5928 26.2693 36.7955 26.088C36.9982 25.896 37.2328 25.8 37.4995 25.8ZM30.3635 30.456H37.4995V32.296H30.3635V30.456ZM44.4875 37.16C43.7408 37.16 43.0688 37.0693 42.4715 36.888C41.8742 36.696 41.3035 36.3653 40.7595 35.896C40.6208 35.7787 40.5142 35.6453 40.4395 35.496C40.3648 35.3467 40.3275 35.1973 40.3275 35.048C40.3275 34.8027 40.4128 34.5893 40.5835 34.408C40.7648 34.216 40.9888 34.12 41.2555 34.12C41.4582 34.12 41.6395 34.184 41.7995 34.312C42.2048 34.6427 42.6048 34.8933 42.9995 35.064C43.4048 35.2347 43.9008 35.32 44.4875 35.32C44.8822 35.32 45.2448 35.2613 45.5755 35.144C45.9062 35.016 46.1728 34.8507 46.3755 34.648C46.5782 34.4347 46.6795 34.1947 46.6795 33.928C46.6795 33.608 46.5835 33.336 46.3915 33.112C46.1995 32.888 45.9062 32.7013 45.5115 32.552C45.1168 32.392 44.6155 32.2693 44.0075 32.184C43.4315 32.0987 42.9248 31.9707 42.4875 31.8C42.0502 31.6187 41.6822 31.3947 41.3835 31.128C41.0955 30.8507 40.8768 30.5307 40.7275 30.168C40.5782 29.7947 40.5035 29.3787 40.5035 28.92C40.5035 28.2267 40.6795 27.6347 41.0315 27.144C41.3942 26.6533 41.8795 26.28 42.4875 26.024C43.0955 25.768 43.7675 25.64 44.5035 25.64C45.1968 25.64 45.8368 25.7467 46.4235 25.96C47.0208 26.1627 47.5062 26.424 47.8795 26.744C48.1888 26.9893 48.3435 27.272 48.3435 27.592C48.3435 27.8267 48.2528 28.04 48.0715 28.232C47.8902 28.424 47.6768 28.52 47.4315 28.52C47.2715 28.52 47.1275 28.472 46.9995 28.376C46.8288 28.2267 46.5995 28.088 46.3115 27.96C46.0235 27.8213 45.7195 27.7093 45.3995 27.624C45.0795 27.528 44.7808 27.48 44.5035 27.48C44.0448 27.48 43.6555 27.5387 43.3355 27.656C43.0262 27.7733 42.7915 27.9333 42.6315 28.136C42.4715 28.3387 42.3915 28.5733 42.3915 28.84C42.3915 29.16 42.4822 29.4267 42.6635 29.64C42.8555 29.8427 43.1275 30.008 43.4795 30.136C43.8315 30.2533 44.2528 30.36 44.7435 30.456C45.3835 30.5733 45.9435 30.712 46.4235 30.872C46.9142 31.032 47.3195 31.24 47.6395 31.496C47.9595 31.7413 48.1995 32.056 48.3595 32.44C48.5195 32.8133 48.5995 33.272 48.5995 33.816C48.5995 34.5093 48.4075 35.1067 48.0235 35.608C47.6395 36.1093 47.1328 36.4933 46.5035 36.76C45.8848 37.0267 45.2128 37.16 44.4875 37.16Z" fill="black"/>
<path d="M62.2 36.024C62.2 36.3013 62.0987 36.536 61.896 36.728C61.6933 36.9093 61.4587 37 61.192 37C60.8933 37 60.6533 36.9093 60.472 36.728C60.2907 36.536 60.2 36.3013 60.2 36.024V26.776C60.2 26.4987 60.296 26.2693 60.488 26.088C60.68 25.896 60.9253 25.8 61.224 25.8C61.48 25.8 61.704 25.896 61.896 26.088C62.0987 26.2693 62.2 26.4987 62.2 26.776V36.024ZM72.4462 26.344C72.7236 26.4827 72.8836 26.7013 72.9263 27C72.9796 27.2987 72.9049 27.5707 72.7023 27.816C72.5636 28.008 72.3823 28.1147 72.1583 28.136C71.9449 28.1573 71.7263 28.1147 71.5023 28.008C71.2463 27.8907 70.9743 27.8 70.6863 27.736C70.4089 27.672 70.1156 27.64 69.8063 27.64C69.2303 27.64 68.7129 27.7307 68.2543 27.912C67.8063 28.0933 67.4223 28.3547 67.1023 28.696C66.7823 29.0267 66.5369 29.4213 66.3663 29.88C66.2063 30.3387 66.1263 30.8453 66.1263 31.4C66.1263 32.0507 66.2169 32.616 66.3983 33.096C66.5903 33.576 66.8516 33.976 67.1823 34.296C67.5129 34.616 67.9023 34.856 68.3503 35.016C68.7983 35.1653 69.2836 35.24 69.8063 35.24C70.0943 35.24 70.3823 35.2133 70.6703 35.16C70.9583 35.1067 71.2356 35.0107 71.5023 34.872C71.7263 34.7653 71.9449 34.728 72.1583 34.76C72.3823 34.792 72.5689 34.904 72.7183 35.096C72.9316 35.3627 73.0063 35.64 72.9423 35.928C72.8889 36.2053 72.7289 36.408 72.4623 36.536C72.1849 36.6747 71.8969 36.792 71.5983 36.888C71.3103 36.9733 71.0169 37.0373 70.7183 37.08C70.4196 37.1333 70.1156 37.16 69.8063 37.16C69.0383 37.16 68.3076 37.0373 67.6143 36.792C66.9316 36.5467 66.3183 36.184 65.7743 35.704C65.2409 35.224 64.8196 34.6267 64.5103 33.912C64.2009 33.1867 64.0463 32.3493 64.0463 31.4C64.0463 30.5787 64.1849 29.8213 64.4622 29.128C64.7503 28.4347 65.1503 27.8373 65.6623 27.336C66.1849 26.824 66.7983 26.4293 67.5023 26.152C68.2063 25.864 68.9743 25.72 69.8063 25.72C70.2756 25.72 70.7343 25.7733 71.1823 25.88C71.6303 25.9867 72.0516 26.1413 72.4462 26.344ZM82.3495 37C82.0508 37 81.8108 36.8773 81.6295 36.632L77.9335 31.768L79.3895 30.28L83.2135 35.336C83.3628 35.5387 83.4375 35.7573 83.4375 35.992C83.4375 36.2907 83.3255 36.536 83.1015 36.728C82.8775 36.9093 82.6268 37 82.3495 37ZM82.5415 25.72C82.7975 25.72 83.0055 25.8267 83.1655 26.04C83.3362 26.2427 83.4215 26.4507 83.4215 26.664C83.4215 26.888 83.3255 27.096 83.1335 27.288L76.4295 33.704L76.3495 31.416L81.7575 26.088C82.0028 25.8427 82.2642 25.72 82.5415 25.72ZM75.6295 37C75.3308 37 75.0908 36.9093 74.9095 36.728C74.7282 36.536 74.6375 36.3013 74.6375 36.024V26.776C74.6375 26.4987 74.7335 26.2693 74.9255 26.088C75.1175 25.896 75.3628 25.8 75.6615 25.8C75.9602 25.8 76.1948 25.896 76.3655 26.088C76.5468 26.2693 76.6375 26.4987 76.6375 26.776V36.024C76.6375 36.3013 76.5468 36.536 76.3655 36.728C76.1842 36.9093 75.9388 37 75.6295 37ZM88.5656 37.16C87.819 37.16 87.147 37.0693 86.5496 36.888C85.9523 36.696 85.3816 36.3653 84.8376 35.896C84.699 35.7787 84.5923 35.6453 84.5176 35.496C84.443 35.3467 84.4056 35.1973 84.4056 35.048C84.4056 34.8027 84.491 34.5893 84.6616 34.408C84.843 34.216 85.067 34.12 85.3336 34.12C85.5363 34.12 85.7176 34.184 85.8776 34.312C86.283 34.6427 86.683 34.8933 87.0776 35.064C87.483 35.2347 87.979 35.32 88.5656 35.32C88.9603 35.32 89.323 35.2613 89.6536 35.144C89.9843 35.016 90.251 34.8507 90.4536 34.648C90.6563 34.4347 90.7576 34.1947 90.7576 33.928C90.7576 33.608 90.6616 33.336 90.4696 33.112C90.2776 32.888 89.9843 32.7013 89.5896 32.552C89.195 32.392 88.6936 32.2693 88.0856 32.184C87.5096 32.0987 87.003 31.9707 86.5656 31.8C86.1283 31.6187 85.7603 31.3947 85.4616 31.128C85.1736 30.8507 84.955 30.5307 84.8056 30.168C84.6563 29.7947 84.5816 29.3787 84.5816 28.92C84.5816 28.2267 84.7576 27.6347 85.1096 27.144C85.4723 26.6533 85.9576 26.28 86.5656 26.024C87.1736 25.768 87.8456 25.64 88.5816 25.64C89.275 25.64 89.915 25.7467 90.5016 25.96C91.099 26.1627 91.5843 26.424 91.9576 26.744C92.267 26.9893 92.4216 27.272 92.4216 27.592C92.4216 27.8267 92.331 28.04 92.1496 28.232C91.9683 28.424 91.755 28.52 91.5096 28.52C91.3496 28.52 91.2056 28.472 91.0776 28.376C90.907 28.2267 90.6776 28.088 90.3896 27.96C90.1016 27.8213 89.7976 27.7093 89.4776 27.624C89.1576 27.528 88.859 27.48 88.5816 27.48C88.123 27.48 87.7336 27.5387 87.4136 27.656C87.1043 27.7733 86.8696 27.9333 86.7096 28.136C86.5496 28.3387 86.4696 28.5733 86.4696 28.84C86.4696 29.16 86.5603 29.4267 86.7416 29.64C86.9336 29.8427 87.2056 30.008 87.5576 30.136C87.9096 30.2533 88.331 30.36 88.8216 30.456C89.4616 30.5733 90.0216 30.712 90.5016 30.872C90.9923 31.032 91.3976 31.24 91.7176 31.496C92.0376 31.7413 92.2776 32.056 92.4376 32.44C92.5976 32.8133 92.6776 33.272 92.6776 33.816C92.6776 34.5093 92.4856 35.1067 92.1016 35.608C91.7176 36.1093 91.211 36.4933 90.5816 36.76C89.963 37.0267 89.291 37.16 88.5656 37.16Z" fill="black"/>
<path d="M53.992 33C53.6933 33 53.448 32.9093 53.256 32.728C53.064 32.536 52.968 32.3013 52.968 32.024V22.744H55.048V32.024C55.048 32.3013 54.9467 32.536 54.744 32.728C54.552 32.9093 54.3013 33 53.992 33ZM50.456 23.64C50.1787 23.64 49.944 23.5547 49.752 23.384C49.5707 23.2133 49.48 22.9893 49.48 22.712C49.48 22.4347 49.5707 22.216 49.752 22.056C49.944 21.8853 50.1787 21.8 50.456 21.8H57.56C57.8373 21.8 58.0667 21.8853 58.248 22.056C58.44 22.2267 58.536 22.4507 58.536 22.728C58.536 23.0053 58.44 23.2293 58.248 23.4C58.0667 23.56 57.8373 23.64 57.56 23.64H50.456Z" fill="black"/>
<path d="M32.5 21.8C31.9919 21.8 31.58 22.2119 31.58 22.72C31.58 23.2281 31.9919 23.64 32.5 23.64V21.8ZM52.5 21.8L32.5 21.8V23.64L52.5 23.64V21.8Z" fill="black"/>
<path d="M52.96 36C52.96 36.5744 53.4256 37.04 54 37.04C54.5744 37.04 55.04 36.5744 55.04 36H52.96ZM52.96 29V36H55.04V29H52.96Z" fill="black"/>
<path d="M32.2062 8.59505C32.3345 9.48685 32.4979 10.3384 32.6919 11.126C32.7513 11.3674 34.3892 13.8961 34.6016 13.8961C34.6444 13.8961 35.0583 13.9096 35.1016 13.8961C35.3595 13.8157 33.6732 10.7902 33.6017 10.5C33.4401 9.84357 33.6017 9.22807 33.6017 8.5C33.6017 7.77193 36.5327 6.76544 39.0046 5.88449L40.4865 6.22431C40.7395 6.32149 41.0152 6.16952 41.1017 5.88449C41.1881 5.59956 41.0529 5.2897 40.7996 5.19244L39.3053 4.61861C39.208 4.58128 39.1027 4.57966 39.0046 4.61405C36.8415 5.37215 33.8069 6.73752 32.3732 8.09033C32.2424 8.21366 32.1789 8.40547 32.2062 8.59505Z" fill="black"/>
<path d="M30.7457 9.8231C30.8341 9.86573 30.9304 9.88606 31.0254 9.88606C31.2222 9.88606 31.4135 9.79894 31.5178 9.6436C31.6726 9.41334 31.9666 9.13112 31.6948 9C30.2996 8.32674 27.6813 6.16007 25.6948 4V3C25.6866 2.7351 25.3619 2.38904 25.0514 2.39624C24.7388 2.40317 24.492 2.62355 24.5002 2.8884L24.5485 4.45097C24.5517 4.55269 24.5929 4.65094 24.6663 4.73149C26.2832 6.5072 28.8456 8.90614 30.7457 9.8231Z" fill="black"/>
<path d="M34.4998 14L31.9998 14L28.9998 14L28.9678 18.9315C28.9689 19.2173 28.6891 19.4412 28.3494 19.4299C28.0079 19.4209 27.7306 19.1798 27.733 18.8947L27.7427 12.8774C27.7417 12.7288 27.8177 12.5878 27.9531 12.4943C28.0925 12.4003 28.267 12.3608 28.4433 12.3858L33.5198 13.1133L34.4998 14Z" fill="black"/>
<path d="M33.6372 13.8371L28.3677 13.3312L29.404 12.6567C29.5046 12.5819 29.8106 12.616 29.903 12.6272L34.4341 13.0678L34.4343 13.4762C34.4301 13.4873 34.9669 13.6411 34.8993 13.717C34.8897 13.7275 34.8864 13.7421 34.8769 13.7507L34.1918 13.8765L33.6372 13.8371Z" fill="black"/>
<path d="M35.0994 13.8697L32.0994 16.8697L36.1505 20.5011C36.3722 20.6814 36.3681 21.0396 36.1442 21.2953C35.9208 21.5537 35.5585 21.6155 35.3395 21.433L30.6908 17.6124C30.5752 17.519 30.5143 17.3708 30.5277 17.2068C30.5434 17.0395 30.6233 16.8794 30.7544 16.7589L33.9298 13.4065L35.0994 13.8697Z" fill="black"/>
<path d="M33.1517 5.41815C30.7259 7.0539 28.9788 6.02891 28.9684 4.37068C28.9581 2.74629 30.3438 1.91836 31.1543 1.94963C33.0284 2.02183 34.3531 4.99047 32.793 5.58003" stroke="#141414" stroke-width="1.25" stroke-linecap="round" stroke-linejoin="round"/>
</svg>
