<svg width="280" height="232" viewBox="0 0 280 232" fill="none" xmlns="http://www.w3.org/2000/svg">
<path d="M23.0984 148.544L31.5986 127.294M31.5986 127.294L44.3489 95.418L57.0992 127.294M31.5986 127.294H57.0992M65.5994 148.544L57.0992 127.294" stroke="currentColor" stroke-width="16" stroke-linecap="round" stroke-linejoin="round"/>
<path d="M214.353 116.669L235.603 84.793M214.353 116.669L193.102 84.793M214.353 116.669V148.544" stroke="currentColor" stroke-width="16" stroke-linecap="round" stroke-linejoin="round"/>
<path d="M86.8499 106.043L108.1 84.793V148.544" stroke="currentColor" stroke-width="16" stroke-linecap="round" stroke-linejoin="round"/>
<path d="M139.976 106.043L161.227 84.793V148.544" stroke="currentColor" stroke-width="16" stroke-linecap="round" stroke-linejoin="round"/>
<path d="M248.051 201.14C247.698 200.934 247.308 200.8 246.902 200.747C246.496 200.694 246.084 200.723 245.69 200.831C245.296 200.94 244.927 201.127 244.606 201.38C244.285 201.634 244.018 201.949 243.821 202.307C243.465 203.122 242.945 203.853 242.292 204.456C241.639 205.059 240.868 205.519 240.028 205.809C238.843 206.242 237.564 206.354 236.322 206.133C235.08 205.913 233.918 205.367 232.955 204.552C231.992 203.737 231.262 202.682 230.838 201.493C230.415 200.305 230.314 199.025 230.545 197.785C230.812 196.345 231.522 195.025 232.578 194.01C233.634 192.995 234.981 192.337 236.43 192.128C237.879 191.918 239.357 192.169 240.657 192.843C241.957 193.518 243.012 194.583 243.675 195.888C243.992 196.547 244.533 197.071 245.202 197.365C245.871 197.659 246.623 197.705 247.322 197.493C247.726 197.368 248.098 197.157 248.412 196.874C248.726 196.591 248.975 196.244 249.141 195.855C249.308 195.467 249.388 195.047 249.376 194.624C249.364 194.202 249.261 193.787 249.073 193.408C247.937 191.233 246.22 189.415 244.113 188.157L254.908 182.905C255.559 182.541 256.07 181.97 256.361 181.283C256.651 180.596 256.705 179.832 256.513 179.112C256.354 178.735 256.122 178.393 255.829 178.107C255.537 177.822 255.19 177.597 254.809 177.448C254.428 177.298 254.021 177.226 253.612 177.236C253.204 177.247 252.801 177.339 252.428 177.507L240.465 183.342L250.094 171.817C250.578 171.283 250.858 170.595 250.884 169.875C250.911 169.154 250.683 168.447 250.24 167.879C249.966 167.543 249.621 167.273 249.23 167.087C248.839 166.901 248.412 166.805 247.979 166.805C247.546 166.805 247.118 166.901 246.727 167.087C246.336 167.273 245.991 167.543 245.717 167.879L234.484 181.3L236.089 175.027C236.262 174.348 236.198 173.63 235.906 172.993C235.613 172.355 235.112 171.838 234.484 171.526C234.083 171.367 233.654 171.294 233.223 171.313C232.792 171.331 232.371 171.441 231.985 171.633C231.6 171.826 231.259 172.098 230.986 172.432C230.713 172.765 230.513 173.152 230.399 173.568L225.002 196.034C224.785 196.896 224.639 197.775 224.564 198.66V199.244C224.602 202.662 225.987 205.927 228.418 208.331C230.849 210.734 234.129 212.082 237.548 212.082C239.911 212.105 242.234 211.46 244.247 210.221C246.26 208.982 247.882 207.2 248.927 205.079C249.316 204.436 249.443 203.668 249.28 202.934C249.117 202.2 248.677 201.558 248.051 201.14Z" fill="currentColor"/>
<path d="M267.016 186.262C264.66 186.272 262.351 186.931 260.344 188.166C258.337 189.401 256.708 191.165 255.637 193.264C255.248 193.907 255.121 194.676 255.284 195.409C255.447 196.143 255.887 196.786 256.513 197.203C256.857 197.416 257.24 197.558 257.64 197.622C258.039 197.685 258.447 197.669 258.841 197.574C259.234 197.479 259.605 197.307 259.931 197.068C260.258 196.829 260.534 196.528 260.743 196.182C261.097 195.35 261.616 194.598 262.267 193.971C262.919 193.344 263.691 192.856 264.536 192.535C265.735 192.09 267.03 191.975 268.288 192.201C269.546 192.428 270.72 192.987 271.688 193.821C272.657 194.655 273.384 195.734 273.794 196.945C274.203 198.155 274.281 199.453 274.019 200.704C273.708 202.09 272.983 203.348 271.941 204.311C270.899 205.275 269.589 205.9 268.183 206.102C266.734 206.406 265.225 206.211 263.901 205.549C262.577 204.886 261.516 203.796 260.889 202.455C260.551 201.816 260.007 201.309 259.345 201.018C258.683 200.727 257.942 200.668 257.242 200.85C256.838 200.975 256.466 201.186 256.152 201.469C255.838 201.752 255.589 202.1 255.423 202.488C255.256 202.877 255.176 203.297 255.188 203.719C255.2 204.142 255.303 204.556 255.491 204.935C256.624 207.151 258.339 209.017 260.451 210.333L249.656 215.585C249.042 215.84 248.534 216.298 248.216 216.881C247.897 217.465 247.788 218.14 247.905 218.794C248.066 219.451 248.439 220.035 248.967 220.457C249.495 220.88 250.147 221.116 250.823 221.128L252.136 220.837L263.807 215.147L254.47 226.088C254.197 226.393 253.988 226.748 253.854 227.135C253.721 227.521 253.666 227.93 253.694 228.338C253.721 228.746 253.829 229.144 254.013 229.51C254.196 229.875 254.451 230.2 254.762 230.465C255.262 230.854 255.879 231.06 256.513 231.048C256.934 231.079 257.356 231.001 257.739 230.822C258.122 230.643 258.453 230.37 258.701 230.027L270.08 216.752L268.475 223.317C268.315 224.05 268.416 224.817 268.763 225.484C269.109 226.15 269.679 226.674 270.372 226.964H271.393C272.017 226.986 272.631 226.796 273.134 226.425C273.637 226.054 274.001 225.524 274.165 224.921L279.562 202.309C279.779 201.447 279.925 200.569 280 199.683V199.246C280 195.802 278.632 192.5 276.197 190.065C273.762 187.63 270.46 186.262 267.016 186.262Z" fill="currentColor"/>
<path d="M21.5674 30.9395C24.9706 30.9395 27.7295 28.1806 27.7295 24.7773C27.7295 21.3741 24.9706 18.6152 21.5674 18.6152C18.1641 18.6152 15.4053 21.3741 15.4053 24.7773C15.4053 28.1806 18.1641 30.9395 21.5674 30.9395Z" fill="currentColor"/>
<path d="M22.3377 3.21396C19.4412 3.11045 16.5537 3.59178 13.8474 4.6292C11.1412 5.66662 8.67182 7.23885 6.5868 9.25197C4.50178 11.2651 2.8439 13.6778 1.71219 16.346C0.580478 19.0142 -0.00184461 21.8831 4.38941e-06 24.7813C4.38941e-06 25.5985 0.324615 26.3822 0.902425 26.96C1.48023 27.5378 2.26391 27.8624 3.08106 27.8624C3.89821 27.8624 4.68189 27.5378 5.2597 26.96C5.83751 26.3822 6.16212 25.5985 6.16212 24.7813C6.1611 22.7048 6.58415 20.6499 7.40533 18.7426C8.22652 16.8354 9.42855 15.1159 10.9378 13.6895C12.4104 12.2296 14.1707 11.0922 16.1068 10.3496C18.0429 9.60694 20.1124 9.27542 22.1836 9.37607C26.0341 9.59662 29.6689 11.2256 32.396 13.9527C35.1232 16.6798 36.7521 20.3147 36.9727 24.1651C37.1142 27.3772 36.2369 30.5519 34.4662 33.2355C32.6956 35.9192 30.122 37.9747 27.1133 39.1083C24.5585 40.1727 22.376 41.9696 20.8408 44.2725C19.3056 46.5753 18.4863 49.281 18.4863 52.0487C18.5302 53.714 17.9301 55.332 16.811 56.5659C15.6918 57.7998 14.1399 58.5545 12.4783 58.673C10.8328 58.6691 9.24487 58.0668 8.01075 56.9784C7.41733 56.3968 6.94766 55.7012 6.62997 54.9335C6.31228 54.1657 6.15314 53.3417 6.16212 52.5108C6.16212 51.6937 5.83751 50.91 5.2597 50.3322C4.68189 49.7544 3.89821 49.4298 3.08106 49.4298C2.26391 49.4298 1.48023 49.7544 0.902425 50.3322C0.324615 50.91 4.38941e-06 51.6937 4.38941e-06 52.5108C0.00269388 54.1466 0.330997 55.7655 0.965771 57.2731C1.60055 58.7807 2.52909 60.1468 3.69727 61.2919C4.83167 62.4207 6.17755 63.3146 7.65788 63.9226C9.13821 64.5306 10.7239 64.8407 12.3242 64.8351H12.6323C15.9015 64.6757 18.9812 63.2537 21.2226 60.8686C23.4641 58.4834 24.6922 55.3214 24.6485 52.0487C24.6132 50.5185 25.0536 49.0151 25.909 47.7458C26.7644 46.4765 27.9925 45.5039 29.4241 44.9623C33.579 43.293 37.1215 40.389 39.5734 36.6423C42.0253 32.8956 43.2684 28.4867 43.1348 24.0111C42.9077 18.5681 40.6437 13.4092 36.7916 9.55714C32.9395 5.70505 27.7806 3.44104 22.3377 3.21396Z" fill="currentColor"/>
<path d="M45.2917 1.05363C45.0175 0.75479 44.6842 0.516194 44.3129 0.352973C43.9416 0.189752 43.5405 0.105469 43.1349 0.105469C42.7294 0.105469 42.3282 0.189752 41.9569 0.352973C41.5857 0.516194 41.2524 0.75479 40.9782 1.05363C40.6793 1.32782 40.4408 1.66112 40.2775 2.03239C40.1143 2.40366 40.03 2.8048 40.03 3.21037C40.03 3.61593 40.1143 4.01707 40.2775 4.38834C40.4408 4.75962 40.6793 5.09292 40.9782 5.36711C43.6069 7.87065 45.6997 10.8821 47.1297 14.2187C48.5597 17.5553 49.297 21.1476 49.297 24.7778C49.297 28.4079 48.5597 32.0002 47.1297 35.3368C45.6997 38.6735 43.6069 41.6849 40.9782 44.1884C40.6793 44.4626 40.4408 44.7959 40.2775 45.1672C40.1143 45.5384 40.03 45.9396 40.03 46.3451C40.03 46.7507 40.1143 47.1519 40.2775 47.5231C40.4408 47.8944 40.6793 48.2277 40.9782 48.5019C41.2524 48.8007 41.5857 49.0393 41.9569 49.2025C42.3282 49.3658 42.7294 49.45 43.1349 49.45C43.5405 49.45 43.9416 49.3658 44.3129 49.2025C44.6842 49.0393 45.0175 48.8007 45.2917 48.5019C48.498 45.4382 51.05 41.7563 52.7936 37.6788C54.5372 33.6012 55.4361 29.2125 55.4361 24.7778C55.4361 20.343 54.5372 15.9543 52.7936 11.8767C51.05 7.79917 48.498 4.11732 45.2917 1.05363Z" fill="currentColor"/>
</svg>
