<svg width="280" height="232" viewBox="0 0 280 232" fill="none" xmlns="http://www.w3.org/2000/svg">
<rect x="63" y="204" width="31" height="27.5187" fill="currentColor"/>
<rect x="126" y="204" width="31" height="27.5187" fill="currentColor"/>
<rect x="189" y="204" width="31" height="27.5187" fill="currentColor"/>
<rect x="249" y="158" width="31" height="27.5187" fill="currentColor"/>
<rect x="249" y="101" width="31" height="27.5187" fill="currentColor"/>
<rect x="249" y="44" width="31" height="27.5187" fill="currentColor"/>
<rect x="188" width="31" height="27.5187" fill="currentColor"/>
<rect x="124" width="31" height="27.5187" fill="currentColor"/>
<rect x="62" width="31" height="27.5187" fill="currentColor"/>
<rect y="44" width="31" height="27.5187" fill="currentColor"/>
<rect y="101" width="31" height="27.5187" fill="currentColor"/>
<rect y="158" width="31" height="27.5187" fill="currentColor"/>
<g clip-path="url(#clip0_116_287)">
<mask id="mask0_116_287" style="mask-type:luminance" maskUnits="userSpaceOnUse" x="47" y="44" width="186" height="144">
<path d="M233 44H47V188H233V44Z" fill="white"/>
<path d="M124.082 97.3446L96.5814 153.751C95.9873 155.157 95.0537 156.268 93.7805 157.082C92.5922 157.822 91.2767 158.193 89.8337 158.193C87.542 158.193 85.8445 157.637 84.7411 156.527C83.6377 155.417 83.086 154.047 83.086 152.419C83.086 151.752 83.2133 151.049 83.4679 150.309L115.17 83.9092C115.849 82.4287 116.867 81.2814 118.225 80.4671C119.668 79.6528 121.196 79.3197 122.808 79.4678C124.336 79.4678 125.737 79.8749 127.01 80.6892C128.368 81.4294 129.344 82.5028 129.938 83.9092L161.258 148.977C161.682 149.939 161.894 150.827 161.894 151.641C161.894 153.64 161.13 155.232 159.603 156.416C158.159 157.6 156.547 158.193 154.765 158.193C153.237 158.193 151.836 157.786 150.563 156.971C149.375 156.157 148.442 155.046 147.762 153.64L120.389 98.0108L124.082 97.3446ZM100.528 140.205L107.531 127.435H141.906L144.325 140.205H100.528ZM188.589 150.864C188.589 152.789 187.782 154.417 186.17 155.75C184.557 157.008 182.689 157.637 180.568 157.637C178.192 157.637 176.282 157.008 174.839 155.75C173.395 154.417 172.674 152.789 172.674 150.864V86.6851C172.674 84.7605 173.438 83.169 174.966 81.9106C176.494 80.5781 178.446 79.9119 180.823 79.9119C182.86 79.9119 184.642 80.5781 186.17 81.9106C187.782 83.169 188.589 84.7605 188.589 86.6851V150.864Z" fill="black"/>
</mask>
<g mask="url(#mask0_116_287)">
<path d="M233 44H47V188H233V44Z" fill="currentColor"/>
</g>
</g>
<defs>
<clipPath id="clip0_116_287">
<rect width="186" height="144" fill="white" transform="translate(47 44)"/>
</clipPath>
</defs>
</svg>
