<svg width="280" height="230" viewBox="0 0 280 230" fill="none" xmlns="http://www.w3.org/2000/svg">
<path d="M266.875 0H13.125C5.88875 0 0 5.27693 0 11.7614V74.4886C0 80.9731 5.88875 86.25 13.125 86.25H266.875C274.111 86.25 280 80.9731 280 74.4886V11.7614C280 5.27693 274.111 0 266.875 0ZM271.25 74.4886C271.25 76.6449 269.281 78.4091 266.875 78.4091H13.125C10.7187 78.4091 8.75 76.6449 8.75 74.4886V11.7614C8.75 9.60511 10.7187 7.84091 13.125 7.84091H266.875C269.281 7.84091 271.25 9.60511 271.25 11.7614V74.4886Z" fill="currentColor"/>
<path d="M275.625 98.375C273.21 98.375 271.25 99.8871 271.25 101.75V219.88C271.25 221.736 269.281 223.255 266.875 223.255H13.125C10.7188 223.255 8.75 221.736 8.75 219.88V101.75C8.75 99.8871 6.79 98.375 4.375 98.375C1.96 98.375 0 99.8871 0 101.75V219.88C0 225.462 5.88875 230.005 13.125 230.005H266.875C274.111 230.005 280 225.462 280 219.88V101.75C280 99.8871 278.04 98.375 275.625 98.375Z" fill="currentColor" stroke="currentColor"/>
<path d="M118.125 195.75C125.523 195.75 131.75 190.963 131.75 184.852V129.398C131.75 123.287 125.523 118.5 118.125 118.5H48.125C40.7275 118.5 34.5 123.287 34.5 129.398V184.852C34.5 190.963 40.7275 195.75 48.125 195.75H118.125ZM44.25 184.852V129.398C44.25 127.87 45.88 126.432 48.125 126.432H118.125C120.37 126.432 122 127.87 122 129.398V184.852C122 186.38 120.37 187.818 118.125 187.818H48.125C45.88 187.818 44.25 186.38 44.25 184.852Z" fill="currentColor" stroke="currentColor"/>
<path d="M157.5 135.5H236.25C238.665 135.5 240.625 133.092 240.625 130.125C240.625 127.158 238.665 124.75 236.25 124.75H157.5C155.085 124.75 153.125 127.158 153.125 130.125C153.125 133.092 155.085 135.5 157.5 135.5Z" fill="currentColor"/>
<path d="M157.5 163.25H236.25C238.665 163.25 240.625 160.842 240.625 157.875C240.625 154.908 238.665 152.5 236.25 152.5H157.5C155.085 152.5 153.125 154.908 153.125 157.875C153.125 160.842 155.085 163.25 157.5 163.25Z" fill="currentColor"/>
<path d="M157.5 191H236.25C238.665 191 240.625 188.592 240.625 185.625C240.625 182.658 238.665 180.25 236.25 180.25H157.5C155.085 180.25 153.125 182.658 153.125 185.625C153.125 188.592 155.085 191 157.5 191Z" fill="currentColor"/>
</svg>
