<svg width="280" height="231" viewBox="0 0 280 231" fill="none" xmlns="http://www.w3.org/2000/svg">
<g clip-path="url(#clip0_115_218)">
<path d="M139.806 41.5553C151.259 41.5553 160.584 32.2309 160.584 20.7776C160.584 9.32435 151.259 0 139.806 0C128.352 0 119.029 9.32435 119.029 20.7776C119.029 32.2309 128.352 41.5553 139.806 41.5553ZM26.8999 41.5553C15.4466 41.5553 6.12219 32.2309 6.12219 20.7776C6.12219 9.32435 15.4466 0 26.8999 0C38.3532 0 47.6775 9.32435 47.6775 20.7776C47.6775 32.2309 38.3532 41.5553 26.8999 41.5553ZM253.099 41.5553C264.552 41.5553 273.876 32.2309 273.876 20.7776C273.876 9.32435 264.552 0 253.099 0C241.645 0 232.321 9.32435 232.321 20.7776C232.321 32.2309 241.645 41.5553 253.099 41.5553ZM279.96 142.07C279.96 145.589 274.852 217.563 274.852 217.563C274.852 225.338 268.854 231.336 261.078 231.336C253.303 231.336 247.305 225.338 247.305 217.563C247.305 217.563 237.731 141.404 235.089 101.588L213.155 127.948C211.272 130.209 208.494 131.495 205.59 131.495C205.213 131.495 204.835 131.474 204.456 131.429C201.153 131.046 198.267 129.024 196.783 126.049L170.489 73.3962V216.315C170.489 224.576 164.374 231.334 156.757 231.334C149.14 231.334 143.024 224.576 143.024 216.315V151.85C143.024 150.348 141.737 149.061 140.235 149.061C138.732 149.061 137.444 150.348 137.444 151.85V216.316C137.444 224.577 131.329 231.335 123.713 231.335C116.096 231.335 109.98 224.577 109.98 216.316V72.4473L83.2117 126.05C81.7274 129.025 78.8418 131.047 75.5407 131.43C75.1618 131.474 74.783 131.496 74.4063 131.496C71.503 131.496 68.724 130.21 66.8418 127.949L44.9098 101.588C42.2675 141.404 32.6932 217.562 32.6932 217.562C32.6932 225.337 26.6954 231.335 18.9199 231.335C11.1444 231.335 5.14664 225.337 5.14664 217.562C5.14664 217.562 0.0377801 145.589 0.0377801 142.07C0.0377801 142.07 0 62.8052 0 62.5485C0 53.693 6.76774 47.432 15.1166 47.432C21.441 47.432 26.3087 49.5697 31.3932 54.6719C31.5387 54.8185 72.3385 103.775 72.3385 103.775C72.2696 103.693 90.4062 67.003 94.0128 60.4396C98.8394 51.6586 105.804 47.4286 114.68 47.3675C114.7 47.3675 114.724 47.362 114.745 47.362C114.745 47.362 164.826 47.3753 165.132 47.3864C174.097 47.362 181.127 51.5952 185.989 60.4441C186.09 60.6185 207.662 103.775 207.662 103.775C207.662 103.775 248.455 54.8185 248.611 54.6686C253.581 49.4586 259.221 47.432 264.883 47.432C273.232 47.432 280 54.1997 280 62.5485C279.999 65.5862 279.96 142.07 279.96 142.07Z" fill="currentColor"/>
</g>
<defs>
<clipPath id="clip0_115_218">
<rect width="280" height="231" fill="white"/>
</clipPath>
</defs>
</svg>
