<svg width="280" height="230" viewBox="0 0 280 230" fill="none" xmlns="http://www.w3.org/2000/svg">
<g clip-path="url(#clip0_115_221)">
<path d="M279.996 20.5095C280.128 13.3647 277.254 6.77679 271.902 1.95989C268.997 -0.653351 264.289 -0.653351 261.386 1.96022C258.482 4.57378 258.482 8.81083 261.386 11.4241C263.863 13.6532 265.191 16.8001 265.127 20.2856C265.065 23.6109 263.667 26.8217 261.386 28.8745C256.655 33.1322 209.497 70.3938 172.666 99.3861L163.64 91.2627C190.527 63.5756 223.893 29.3403 236.944 16.341L239.913 19.0135C242.817 21.627 247.525 21.6274 250.428 19.0141C253.333 16.4009 253.333 12.1639 250.43 9.55028L241.997 1.96055C240.603 0.705462 238.711 0.000123541 236.74 0.000123541H236.739C234.767 0.000123541 232.876 0.705123 231.481 1.95989C226.957 6.03197 199.279 34.3241 174.305 59.9733C167.589 50.8243 158.618 42.9538 147.948 36.9122C132.352 28.0818 114.17 23.6045 93.9052 23.6045C89.4473 23.6045 85.0369 23.8575 80.7975 24.3571C76.7254 24.8369 73.8567 28.1963 74.3895 31.8611C74.9226 35.5257 78.6549 38.1074 82.727 37.628C86.3292 37.2037 90.0901 36.9886 93.9049 36.9886C124.76 36.9886 150.643 49.4384 164.065 70.4975C151.54 83.3779 140.779 94.4721 135.59 99.8253C126.326 100.961 119.414 104.373 114.54 110.224C110.008 115.664 108.022 122.16 105.919 129.038C103.383 137.331 100.762 145.907 93.2847 152.636C91.1578 154.55 90.5217 157.428 91.6727 159.929C92.8237 162.429 95.5351 164.06 98.5424 164.06C118.553 164.06 134.414 160.222 145.684 152.651C155.839 145.828 161.893 136.141 163.324 124.509C182.483 109.45 265.03 44.5224 271.901 38.3383C276.919 33.8229 279.869 27.3243 279.996 20.5095ZM161.445 108.216C159.211 109.973 157.045 111.676 154.962 113.313L148.173 107.203C149.99 105.329 151.882 103.378 153.834 101.366L161.445 108.216ZM136.788 141.925C130.939 145.855 123.156 148.473 113.549 149.756C116.818 143.84 118.652 137.841 120.257 132.588C123.704 121.316 125.803 115.659 134.295 113.639L148.024 126.001C146.513 132.574 142.751 137.921 136.788 141.925Z" fill="currentColor"/>
<path d="M57.5806 44.0694C58.6636 44.0694 59.7637 43.8553 60.8043 43.4039C61.4717 43.1141 62.1572 42.8294 62.8413 42.558C66.5981 41.0654 68.2994 37.1144 66.6409 33.7333C64.9824 30.3525 60.5928 28.8213 56.8356 30.3137C56.0002 30.6456 55.1626 30.9936 54.3458 31.3479C50.647 32.953 49.0941 36.9532 50.8771 40.2821C52.159 42.6745 54.8146 44.0694 57.5806 44.0694Z" fill="currentColor"/>
<path d="M111.313 171.496C107.21 171.46 103.841 174.416 103.794 178.112C103.473 203.838 99.1581 215.316 74.4371 215.316C60.5787 215.316 46.0347 206.192 34.5349 190.283C21.8546 172.742 14.8711 149.966 14.8711 126.153C14.8711 95.238 25.2438 69.5152 44.0784 53.7234C47.0831 51.2042 47.2497 46.9695 44.4506 44.2653C41.6514 41.561 36.9462 41.4111 33.9415 43.9304C22.8473 53.2326 14.2633 65.3189 8.42747 79.854C2.83518 93.7818 0 109.359 0 126.153C0 152.527 7.8382 177.894 22.0699 197.582C36.3651 217.358 55.4526 228.7 74.4371 228.7C92.5951 228.7 105.251 222.949 112.052 211.608C117.891 201.87 118.527 189.29 118.664 178.263C118.71 174.567 115.419 171.537 111.313 171.496Z" fill="currentColor"/>
<path d="M147.903 72.3905C147.903 60.0972 136.79 50.0957 123.131 50.0957C109.471 50.0957 98.3582 60.0972 98.3582 72.3905C98.3582 84.684 109.471 94.6861 123.131 94.6861C136.79 94.6855 147.903 84.684 147.903 72.3905ZM113.229 72.3905C113.229 67.4769 117.671 63.4797 123.131 63.4797C128.59 63.4797 133.032 67.4769 133.032 72.3905C133.032 77.3044 128.59 81.3019 123.131 81.3019C117.671 81.3016 113.229 77.304 113.229 72.3905Z" fill="currentColor"/>
<path d="M64.0922 102.698C77.7518 102.698 88.8646 92.6967 88.8646 80.4034C88.8646 68.1099 77.7518 58.1084 64.0922 58.1084C50.4327 58.1084 39.3199 68.1099 39.3199 80.4034C39.3199 92.6967 50.4327 102.698 64.0922 102.698ZM64.0922 71.4923C69.5518 71.4923 73.9934 75.4895 73.9934 80.4034C73.9934 85.3171 69.5518 89.3141 64.0922 89.3141C58.6327 89.3141 54.191 85.3171 54.191 80.4034C54.191 75.4895 58.6331 71.4923 64.0922 71.4923Z" fill="currentColor"/>
<path d="M69.8888 131.628C69.8888 119.335 58.776 109.332 45.1165 109.332C31.4569 109.332 20.3441 119.335 20.3441 131.628C20.3441 143.921 31.4569 153.923 45.1165 153.923C58.776 153.923 69.8888 143.921 69.8888 131.628ZM45.1165 140.539C39.6569 140.539 35.2153 136.542 35.2153 131.628C35.2153 126.714 39.6569 122.717 45.1165 122.717C50.576 122.717 55.0177 126.714 55.0177 131.628C55.0177 136.541 50.576 140.539 45.1165 140.539Z" fill="currentColor"/>
<path d="M71.1435 206.088C84.803 206.088 95.9162 196.087 95.9162 183.794C95.9162 171.5 84.803 161.499 71.1435 161.499C57.4844 161.499 46.3715 171.5 46.3715 183.794C46.3715 196.087 57.4844 206.088 71.1435 206.088ZM71.1435 174.883C76.6034 174.883 81.0451 178.88 81.0451 183.794C81.0451 188.708 76.6034 192.704 71.1435 192.704C65.6843 192.704 61.2427 188.708 61.2427 183.794C61.2427 178.88 65.6843 174.883 71.1435 174.883Z" fill="currentColor"/>
</g>
<defs>
<clipPath id="clip0_115_221">
<rect width="280" height="230" fill="white"/>
</clipPath>
</defs>
</svg>
