<svg width="280" height="230" viewBox="0 0 280 230" fill="none" xmlns="http://www.w3.org/2000/svg">
<g clip-path="url(#clip0_111_56)">
<path d="M188.628 190.906C187.177 190.153 185.913 189.144 184.908 187.921C184.444 187.357 184.052 186.76 183.727 186.144H18.8578V47.5826H242.644V138.058C247.421 138.426 251.43 141.102 253.113 144.765C254.603 144.069 256.264 143.639 258.01 143.507C259.191 143.42 260.363 143.482 261.501 143.674V13.0639C261.501 5.6752 254.452 -0.335938 245.788 -0.335938H15.7146C7.04983 -0.335938 0 5.6752 0 13.0639V188.825C0 196.213 7.04983 202.224 15.7146 202.224H187.195C185.857 199.914 185.54 197.305 186.327 194.796C186.781 193.352 187.567 192.035 188.628 190.906ZM225.387 22.165C225.387 19.4327 227.985 17.2171 231.189 17.2171H236.992C240.197 17.2171 242.794 19.4321 242.794 22.165V27.7725C242.794 30.5049 240.196 32.7199 236.992 32.7199H231.189C227.984 32.7199 225.387 30.5049 225.387 27.7725V22.165ZM198.406 22.165C198.406 19.4327 201.004 17.2171 204.208 17.2171H210.011C213.216 17.2171 215.813 19.4321 215.813 22.165V27.7725C215.813 30.5049 213.216 32.7199 210.011 32.7199H204.208C201.004 32.7199 198.406 30.5049 198.406 27.7725V22.165ZM171.424 22.165C171.424 19.4327 174.023 17.2171 177.226 17.2171H183.029C186.234 17.2171 188.832 19.4321 188.832 22.165V27.7725C188.832 30.5049 186.234 32.7199 183.029 32.7199H177.226C174.023 32.7199 171.424 30.5049 171.424 27.7725V22.165Z" fill="currentColor"/>
<path d="M279.963 184.883L278.219 174.995C277.984 173.664 276.715 172.774 275.382 173.009L266.588 174.558C265.533 172.081 264.185 169.761 262.584 167.637L268.328 160.791C268.745 160.295 268.949 159.651 268.893 159.004C268.836 158.356 268.523 157.759 268.026 157.341L260.335 150.887C259.838 150.469 259.193 150.266 258.546 150.323C257.899 150.38 257.302 150.691 256.884 151.189L251.146 158.03C248.79 156.83 246.27 155.904 243.631 155.293V146.364C243.631 145.012 242.534 143.914 241.182 143.914H231.14C229.788 143.914 228.691 145.012 228.691 146.364V155.293C226.05 155.903 223.533 156.83 221.176 158.03L215.436 151.189C214.567 150.153 213.022 150.018 211.985 150.887L204.294 157.341C203.797 157.759 203.485 158.356 203.428 159.004C203.372 159.651 203.575 160.295 203.992 160.793L209.736 167.638C208.139 169.761 206.788 172.083 205.732 174.559L196.939 173.009C195.609 172.775 194.338 173.664 194.102 174.995L192.359 184.883C192.246 185.523 192.392 186.18 192.764 186.713C193.138 187.246 193.704 187.608 194.344 187.721L203.144 189.272C203.287 191.998 203.762 194.636 204.526 197.147L196.792 201.612C196.229 201.935 195.819 202.471 195.65 203.098C195.482 203.725 195.571 204.393 195.895 204.956L200.915 213.652C201.238 214.214 201.774 214.624 202.401 214.792C202.61 214.848 202.823 214.876 203.035 214.876C203.461 214.876 203.883 214.765 204.26 214.548L212 210.078C213.82 212.029 215.875 213.757 218.121 215.218L215.065 223.615C214.843 224.226 214.872 224.899 215.147 225.488C215.421 226.077 215.918 226.532 216.528 226.754L225.962 230.187C226.233 230.286 226.517 230.336 226.8 230.336C227.153 230.336 227.509 230.26 227.836 230.106C228.425 229.832 228.879 229.335 229.101 228.724L232.157 220.327C233.467 220.486 234.801 220.568 236.153 220.568C237.506 220.568 238.84 220.485 240.15 220.327L243.207 228.724C243.428 229.335 243.884 229.832 244.472 230.106C244.798 230.259 245.152 230.336 245.508 230.336C245.79 230.336 246.074 230.287 246.345 230.187L255.78 226.754C256.389 226.532 256.886 226.076 257.16 225.488C257.435 224.899 257.464 224.226 257.242 223.615L254.186 215.22C256.429 213.758 258.484 212.029 260.307 210.08L268.047 214.549C268.423 214.765 268.846 214.877 269.272 214.877C269.484 214.877 269.698 214.848 269.906 214.794C270.533 214.626 271.068 214.214 271.392 213.653L276.412 204.956C276.736 204.395 276.825 203.725 276.657 203.098C276.488 202.472 276.078 201.936 275.515 201.612L267.782 197.149C268.546 194.636 269.02 191.999 269.163 189.273L277.963 187.721C278.603 187.609 279.171 187.247 279.543 186.714C279.929 186.18 280.075 185.523 279.963 184.883ZM236.161 200.597C228.724 200.597 222.693 194.566 222.693 187.127C222.693 179.689 228.724 173.658 236.161 173.658C243.6 173.658 249.631 179.689 249.631 187.127C249.631 194.566 243.6 200.597 236.161 200.597Z" fill="currentColor"/>
<path d="M113.367 133.526C113.367 130.957 111.861 128.597 109.53 127.514L88.196 117.602L109.53 107.689C111.861 106.605 113.367 104.245 113.367 101.677V101.505C113.367 99.2281 112.221 97.1383 110.303 95.9169C109.243 95.2393 108.007 94.8809 106.731 94.8809C105.77 94.8809 104.805 95.0923 103.941 95.4935L69.8347 111.354C67.5048 112.438 66 114.797 66 117.365V117.839C66 120.404 67.5042 122.762 69.8352 123.851L103.945 139.713C104.827 140.121 105.766 140.328 106.736 140.328C108.001 140.328 109.232 139.969 110.303 139.288C112.222 138.062 113.367 135.974 113.367 133.7L113.367 133.526Z" fill="currentColor"/>
<path d="M147.019 78.7198C145.774 77.0165 143.773 76 141.665 76H141.495C138.6 76 136.062 77.8519 135.18 80.6047L112.708 150.233C112.069 152.243 112.429 154.457 113.671 156.16C114.916 157.862 116.917 158.879 119.025 158.879H119.195C122.089 158.879 124.626 157.027 125.506 154.274L147.976 84.6519C148.621 82.6431 148.263 80.4257 147.019 78.7198Z" fill="currentColor"/>
<path d="M190.853 111.353L156.746 95.4924C155.885 95.0923 154.921 94.8809 153.96 94.8809C152.685 94.8809 151.449 95.2383 150.389 95.9147C148.468 97.1383 147.322 99.2276 147.322 101.504V101.676C147.322 104.243 148.827 106.603 151.16 107.691L172.493 117.602L151.159 127.514C148.828 128.596 147.322 130.956 147.322 133.526V133.699C147.322 135.973 148.468 138.061 150.388 139.288C151.455 139.968 152.688 140.328 153.954 140.328C154.923 140.328 155.861 140.121 156.749 139.711L190.857 123.849C193.186 122.762 194.69 120.404 194.69 117.839V117.365C194.688 114.797 193.184 112.437 190.853 111.353Z" fill="currentColor"/>
</g>
<defs>
<clipPath id="clip0_111_56">
<rect width="280" height="230" fill="white"/>
</clipPath>
</defs>
</svg>
